<svg width="25" height="25" viewBox="0 0 25 25" fill="none" xmlns="http://www.w3.org/2000/svg">
<path d="M3.59375 0.0976539C2.87109 0.283201 2.62207 0.454099 1.54297 1.51367C1.01074 2.03613 0.512695 2.55859 0.43457 2.6709C0.356445 2.7832 0.224609 3.07617 0.141602 3.33008L-0.0146484 3.78418L0.0195312 4.64844C0.239258 10.8691 3.06641 16.5283 7.88574 20.3955C8.54492 20.9229 9.89258 21.8457 10.5713 22.2266C13.5986 23.9404 16.8701 24.8584 20.3857 24.9854L21.2158 25.0146L21.6699 24.8584C21.9238 24.7754 22.2168 24.6436 22.3291 24.5654C22.6074 24.3701 24.3164 22.6367 24.4971 22.3633C24.9707 21.6504 25.1123 20.6689 24.8584 19.8437C24.6728 19.2334 24.4678 18.9014 23.9746 18.4033C23.3105 17.7344 23.1836 17.6807 21.0107 17.0752L19.2139 16.5771H18.6523C18.2031 16.5771 18.0176 16.6016 17.7246 16.6895C17.0947 16.8848 16.7871 17.0947 16.0156 17.8516L15.3076 18.5449L14.6728 18.335C10.8594 17.0703 7.94433 14.1553 6.66504 10.332L6.45508 9.69726L7.17773 8.95508C7.98828 8.125 8.16406 7.8418 8.35449 7.08008C8.53515 6.37207 8.48633 6.03027 7.93945 4.05273C7.68555 3.125 7.45117 2.29004 7.41699 2.19726C7.29004 1.83594 6.94824 1.34765 6.56738 0.981443C6.09863 0.532224 5.86426 0.390623 5.26367 0.190427C4.66797 -0.00976801 4.14062 -0.0390649 3.59375 0.0976539Z" fill="url(#paint0_linear_118_18)"/>
<defs>
<linearGradient id="paint0_linear_118_18" x1="19.5" y1="31" x2="9" y2="-2.5" gradientUnits="userSpaceOnUse">
<stop stop-color="#FF5C01"/>
<stop offset="0.890625" stop-color="#04026A"/>
</linearGradient>
</defs>
</svg>
