<svg width="56" height="56" viewBox="0 0 56 56" fill="none" xmlns="http://www.w3.org/2000/svg">
<path d="M27.1795 0.207818C26.6436 0.459381 18.0029 9.08907 17.8389 9.5375C17.6201 10.1281 17.9483 10.5438 18.8998 10.8719C19.4795 11.0797 20.2451 11.6047 20.8139 12.1844C23.1436 14.5688 23.1217 18.4188 20.7701 20.7703C18.4186 23.1219 14.5686 23.1438 12.1842 20.8141C11.6045 20.2453 11.0795 19.4797 10.8717 18.9C10.5436 17.9484 10.1279 17.6203 9.53731 17.8391C9.08888 18.0031 0.45919 26.6438 0.207628 27.1797C-0.0439348 27.7156 -0.0548723 28.2078 0.163878 28.7438C0.28419 29.0172 1.77169 30.5922 4.81231 33.6328C7.94044 36.7719 9.30763 38.2156 9.36231 38.4344C9.46075 38.8281 9.242 39.2547 8.85919 39.4406C8.70606 39.5172 8.26856 39.725 7.87481 39.9109C6.94513 40.3375 5.85138 41.4203 5.31544 42.4266C4.03575 44.8547 4.46231 47.6656 6.39825 49.6016C7.94044 51.1438 10.0186 51.7344 12.1295 51.2422C13.7701 50.8484 15.4326 49.5469 16.0889 48.1359C16.2748 47.7422 16.4826 47.2938 16.5592 47.1406C16.7451 46.7578 17.1717 46.5391 17.5654 46.6375C17.7842 46.6922 19.2279 48.0594 22.367 51.1875C25.4076 54.2281 26.9826 55.7156 27.2561 55.8359C27.792 56.0547 28.2842 56.0438 28.8201 55.7922C29.367 55.5406 37.9967 46.9 38.1717 46.4516C38.3248 46.025 38.117 45.6094 37.6248 45.3688C37.417 45.2703 36.9686 45.0516 36.6295 44.8984C35.9076 44.5594 34.9014 43.6188 34.3764 42.7984C33.1514 40.8844 33.1514 38.1828 34.3873 36.2797C36.4764 33.0094 41.0482 32.4844 43.8154 35.1859C44.417 35.7766 44.8764 36.4547 45.1826 37.2313C45.5217 38.0625 45.8826 38.3578 46.3858 38.1828C46.8998 38.0188 55.5951 29.3234 55.8358 28.7438C56.0436 28.2297 56.0436 27.7703 55.8358 27.2563C55.7154 26.9828 54.2279 25.4078 51.1873 22.3672C48.0592 19.2281 46.692 17.7844 46.6373 17.5656C46.5389 17.1719 46.7576 16.7453 47.1404 16.5594C47.2936 16.4828 47.742 16.275 48.1358 16.0891C49.5467 15.4328 50.8483 13.7703 51.242 12.1297C51.7342 10.0188 51.1436 7.95157 49.6014 6.38751C47.217 3.97032 43.3998 3.99219 40.9607 6.42032C40.3045 7.07657 39.9545 7.64532 39.5061 8.77188C39.4404 8.93594 39.2654 9.14375 39.1123 9.24219C38.4998 9.64688 38.4232 9.58125 33.6326 4.80157C30.592 1.78282 29.017 0.284381 28.7436 0.164068C28.2076 -0.0546818 27.7154 -0.0437443 27.1795 0.207818Z" fill="url(#paint0_linear_12_335)"/>
<defs>
<linearGradient id="paint0_linear_12_335" x1="34.2998" y1="56" x2="13.6498" y2="8.4" gradientUnits="userSpaceOnUse">
<stop stop-color="#FF5C01"/>
<stop offset="1" stop-color="#04026A"/>
</linearGradient>
</defs>
</svg>
