<svg width="100" height="100" viewBox="0 0 100 100" fill="none" xmlns="http://www.w3.org/2000/svg">
<path d="M47.7734 0.282364C46.2109 0.69252 44.9023 1.4933 43.8477 2.64565C40.8398 5.94643 40.8398 10.7316 43.8672 13.9347C44.9805 15.1066 46.0547 15.8097 47.3242 16.1808L48.1445 16.4347V21.591V26.7277H33.1836C16.6992 26.7277 17.1875 26.6886 14.5703 27.9581C12.7734 28.8371 10.5273 31.0636 9.60938 32.8996C8.45703 35.1847 8.30078 36.1222 8.30078 40.7706V44.8917H7.46094C4.16016 44.8917 1.75781 46.298 0.507812 48.9738L0 50.0675V56.7081V63.3488L0.546875 64.4621C1.32812 66.0636 2.89062 67.4308 4.53125 67.9386C5.23438 68.1535 6.34766 68.3292 7.05078 68.3292H8.30078V72.4503C8.30078 77.0206 8.45703 78.0363 9.53125 80.2433C10.293 81.7863 12.3242 83.9933 13.8281 84.8917C15.1367 85.6925 17.1875 86.3956 18.6914 86.5714L19.8047 86.7081L19.8633 92.88L19.9219 99.0324L20.4883 99.5206C20.8984 99.8722 21.2305 99.9894 21.6602 99.9308C22.0508 99.8722 25.7422 97.5285 32.0312 93.3292L41.7969 86.7863L61.9141 86.6886L82.0312 86.591L83.3008 86.1613C87.1875 84.8331 90.2148 81.6105 91.1914 77.7824C91.4258 76.8644 91.5039 75.5753 91.5039 72.4503V68.3292H92.7539C93.457 68.3292 94.5703 68.1535 95.2734 67.9386C96.9141 67.4308 98.4766 66.0636 99.2578 64.4621L99.8047 63.3488V56.7081V50.0675L99.2969 48.9738C98.0469 46.298 95.6445 44.8917 92.3438 44.8917H91.5039V40.7706C91.5039 36.1027 91.3477 35.1261 90.1758 32.88C89.2383 31.0636 86.9922 28.798 85.2539 27.9581C82.6758 26.6886 83.1641 26.7277 66.6602 26.7277H51.6602V21.591V16.4347L52.5 16.2003C53.7695 15.8292 54.7852 15.1456 55.918 13.9542C58.9648 10.7316 58.9844 5.94643 55.957 2.64565C53.9258 0.419083 50.7227 -0.518417 47.7734 0.282364ZM51.5039 3.60268C53.5156 4.28627 54.8242 6.12221 54.8438 8.27065C54.8438 9.83315 54.3555 10.9269 53.2227 11.9425C51.25 13.7199 48.5547 13.7199 46.582 11.9425C45.4492 10.9269 44.9609 9.83315 44.9609 8.27065C44.9805 4.85268 48.2812 2.4894 51.5039 3.60268ZM83.5156 30.8683C85.332 31.7667 86.6016 33.0558 87.4609 34.8917L88.0859 36.2003V56.6105V77.0206L87.4609 78.3488C86.7188 79.9113 85.2344 81.5324 83.8867 82.2746C81.875 83.3683 81.9727 83.3683 60.8398 83.3683C42.4805 83.3683 41.3672 83.3878 40.625 83.7394C40.1953 83.9347 36.2305 86.5128 31.7969 89.4816C27.3828 92.4503 23.6328 94.9503 23.457 95.0089C23.1836 95.1261 23.1445 94.6574 23.1445 90.3605C23.1445 85.7121 23.125 85.5558 22.6953 84.9113C22.0898 83.9933 21.0742 83.3683 20.2344 83.3683C19.0234 83.3683 16.8945 82.8214 15.9375 82.2746C14.082 81.2003 12.6953 79.5206 12.0117 77.5285C11.6211 76.3371 11.6211 76.1613 11.6602 56.2589L11.7188 36.2003L12.3438 34.8917C13.3789 32.6847 15.0391 31.2199 17.3828 30.3996C18.3008 30.0871 20.3906 30.0675 50.2148 30.1066L82.0508 30.1456L83.5156 30.8683ZM8.26172 56.6496L8.30078 65.0089H7.1875C5.74219 65.0089 4.60938 64.5011 3.88672 63.5246L3.32031 62.8019L3.26172 56.923C3.20312 51.1417 3.22266 51.0246 3.65234 50.1847C4.375 48.7785 5.46875 48.2121 7.32422 48.2706L8.20312 48.3097L8.26172 56.6496ZM94.8047 48.6808C95.5273 49.0714 96.1328 49.8331 96.4062 50.7316C96.543 51.1808 96.582 53.466 96.543 57.1183L96.4844 62.8019L95.918 63.5246C95.1953 64.5011 94.0625 65.0089 92.6367 65.0089H91.5039V56.7472C91.5039 52.1964 91.5625 48.4074 91.6602 48.3292C91.875 48.0949 94.1602 48.3488 94.8047 48.6808Z" fill="url(#paint0_linear_12_26)"/>
<path d="M27.3633 43.7003C24.9805 44.4816 22.832 46.5714 22.0312 48.8566C21.5625 50.2238 21.5625 53.0167 22.0312 54.4034C23.1445 57.587 26.4648 59.9308 29.8633 59.9308C32.207 59.9308 34.1211 59.13 35.7812 57.4698C39.9609 53.2902 38.4375 46.0245 32.9102 43.8761C31.3672 43.2902 28.8867 43.212 27.3633 43.7003ZM31.5625 46.9425C33.418 47.6066 34.6289 49.1495 34.8047 51.0831C35 53.1925 34.1211 54.9308 32.3828 55.9659C31.582 56.4347 31.2305 56.5128 29.9805 56.5128C27.832 56.5128 26.2891 55.5753 25.3711 53.7589C24.8438 52.6847 24.8633 50.5363 25.4297 49.4816C26.6406 47.1769 29.2188 46.1222 31.5625 46.9425Z" fill="url(#paint1_linear_12_26)"/>
<path d="M67.4414 43.7004C65.1172 44.4426 63.4766 45.8879 62.3438 48.2121C61.7578 49.4035 61.7188 49.5988 61.7188 51.6301C61.7188 53.5636 61.7773 53.8957 62.2656 54.9308C63.3398 57.2551 65.1172 58.8176 67.4609 59.5402C72.5195 61.1222 77.7148 57.6261 78.1641 52.3136C78.4961 48.3293 75.8984 44.6379 72.0703 43.6418C70.5469 43.2316 68.8281 43.2707 67.4414 43.7004ZM72.0312 47.1379C73.8086 47.9777 74.7852 49.5988 74.8047 51.6301C74.8047 52.7824 74.707 53.1535 74.2188 54.0324C72.8906 56.4543 69.7461 57.3332 67.3828 55.9269C63.7891 53.8371 64.2773 48.4269 68.1836 46.9426C69.1602 46.5715 71.0742 46.6691 72.0312 47.1379Z" fill="url(#paint2_linear_12_26)"/>
<path d="M40.9961 63.4464C40.4102 63.6808 39.9414 64.4034 39.9414 65.0675C39.9414 65.8683 41.6016 67.5284 43.2617 68.4073C45.2734 69.462 47.1875 69.8917 49.9023 69.8917C53.7891 69.8917 56.875 68.7784 58.8672 66.6691C60.0195 65.4581 60.1562 64.7745 59.3945 63.9152C58.6523 63.0363 57.7344 63.1534 56.582 64.2667C54.9219 65.8878 52.9297 66.5714 49.9023 66.5714C46.9141 66.5714 44.8828 65.8878 43.2617 64.3253C42.3242 63.4073 41.6602 63.1534 40.9961 63.4464Z" fill="url(#paint3_linear_12_26)"/>
<defs>
<linearGradient id="paint0_linear_12_26" x1="49.9023" y1="99.9452" x2="49.9023" y2="-6.10352e-05" gradientUnits="userSpaceOnUse">
<stop stop-color="#FF5C01"/>
<stop offset="0.390625" stop-color="#04026A"/>
</linearGradient>
<linearGradient id="paint1_linear_12_26" x1="29.9248" y1="59.9308" x2="29.9248" y2="43.3798" gradientUnits="userSpaceOnUse">
<stop stop-color="#FF5C01"/>
<stop offset="0.390625" stop-color="#04026A"/>
</linearGradient>
<linearGradient id="paint2_linear_12_26" x1="69.9557" y1="59.9232" x2="69.9557" y2="43.3551" gradientUnits="userSpaceOnUse">
<stop stop-color="#FF5C01"/>
<stop offset="0.390625" stop-color="#04026A"/>
</linearGradient>
<linearGradient id="paint3_linear_12_26" x1="49.9059" y1="69.8917" x2="49.9059" y2="63.3309" gradientUnits="userSpaceOnUse">
<stop stop-color="#FF5C01"/>
<stop offset="0.390625" stop-color="#04026A"/>
</linearGradient>
</defs>
</svg>
