<svg width="70" height="70" viewBox="0 0 70 70" fill="none" xmlns="http://www.w3.org/2000/svg">
<path d="M2.54807 0.703514C1.83394 0.936768 0.609701 2.19047 0.391088 2.93395C0.128752 3.80862 0.128752 67.1937 0.391088 68.0684C0.624276 68.8702 1.83394 70.0801 2.63552 70.3134C3.50997 70.5758 66.8787 70.5758 67.7532 70.3134C68.5547 70.0801 69.7644 68.8702 69.9976 68.0684C70.2599 67.1937 70.2599 3.80862 69.9976 2.93395C69.7644 2.13216 68.5547 0.922188 67.7532 0.688942C66.9224 0.441116 3.32051 0.455688 2.54807 0.703514ZM67.4762 3.21093C67.8406 3.5608 67.8406 3.5608 67.8406 6.70965V9.84391H35.1943H2.54807V6.70965C2.54807 3.5608 2.54807 3.5608 2.91243 3.21093L3.26221 2.84648H35.1943H67.1265L67.4762 3.21093ZM67.8406 39.8017V67.4415L67.4762 67.7914L67.1265 68.1558H35.1943H3.26221L2.91243 67.7914L2.54807 67.4415V39.8017V12.1764H35.1943H67.8406V39.8017Z" fill="url(#paint0_linear_12_224)"/>
<path d="M5.24424 5.54342C5.01105 5.76209 4.87988 6.06822 4.87988 6.34521C4.87988 6.62219 5.01105 6.92832 5.24424 7.14699C5.5503 7.46771 5.72519 7.51144 6.62879 7.51144C7.53239 7.51144 7.70728 7.46771 8.01334 7.14699C8.49429 6.6805 8.49429 6.00991 8.01334 5.54342C7.70728 5.2227 7.53239 5.17897 6.62879 5.17897C5.72519 5.17897 5.5503 5.2227 5.24424 5.54342Z" fill="url(#paint1_linear_12_224)"/>
<path d="M11.0743 5.54342C10.8411 5.76209 10.71 6.06822 10.71 6.34521C10.71 6.62219 10.8411 6.92832 11.0743 7.14699C11.3804 7.46771 11.5553 7.51144 12.4589 7.51144C13.3625 7.51144 13.5374 7.46771 13.8434 7.14699C14.3244 6.6805 14.3244 6.00991 13.8434 5.54342C13.5374 5.2227 13.3625 5.17897 12.4589 5.17897C11.5553 5.17897 11.3804 5.2227 11.0743 5.54342Z" fill="url(#paint2_linear_12_224)"/>
<path d="M16.9034 5.54342C16.6702 5.76209 16.5391 6.06822 16.5391 6.34521C16.5391 6.62219 16.6702 6.92832 16.9034 7.14699C17.2095 7.46771 17.3844 7.51144 18.288 7.51144C19.1916 7.51144 19.3665 7.46771 19.6725 7.14699C19.9057 6.92832 20.0369 6.62219 20.0369 6.34521C20.0369 6.06822 19.9057 5.76209 19.6725 5.54342C19.3665 5.2227 19.1916 5.17897 18.288 5.17897C17.3844 5.17897 17.2095 5.2227 16.9034 5.54342Z" fill="url(#paint3_linear_12_224)"/>
<path d="M29.7291 5.54342C29.4959 5.76209 29.3647 6.06822 29.3647 6.34521C29.3647 6.62219 29.4959 6.92832 29.7291 7.14699L30.0789 7.51144H44.5219H58.965L59.3148 7.14699C59.548 6.92832 59.6791 6.62219 59.6791 6.34521C59.6791 6.06822 59.548 5.76209 59.3148 5.54342L58.965 5.17897H44.5219H30.0789L29.7291 5.54342Z" fill="url(#paint4_linear_12_224)"/>
<path d="M62.3751 5.54342C62.1419 5.76209 62.0107 6.06822 62.0107 6.34521C62.0107 6.62219 62.1419 6.92832 62.3751 7.14699C62.6812 7.46771 62.856 7.51144 63.7596 7.51144C64.6633 7.51144 64.8381 7.46771 65.1442 7.14699C65.3774 6.92832 65.5086 6.62219 65.5086 6.34521C65.5086 6.06822 65.3774 5.76209 65.1442 5.54342C64.8381 5.2227 64.6633 5.17897 63.7596 5.17897C62.856 5.17897 62.6812 5.2227 62.3751 5.54342Z" fill="url(#paint5_linear_12_224)"/>
<path d="M7.57627 17.2058L7.21191 17.5557V29.67V41.7843L7.57627 42.1341L7.92605 42.4986H25.284H42.6419L42.9916 42.1341L43.356 41.7843V29.67V17.5557L42.9916 17.2058L42.6419 16.8413H25.284H7.92605L7.57627 17.2058ZM41.0241 28.1393C41.0241 33.0666 40.995 37.1047 40.9658 37.1047C40.9367 37.1047 38.7651 33.6643 36.1418 29.4659C30.997 21.2293 31.0262 21.2731 30.108 21.6521C29.7582 21.7979 29.0004 22.8912 26.275 27.2792C24.4095 30.2677 22.8355 32.7313 22.7918 32.7313C22.748 32.7313 21.7716 31.3319 20.6348 29.6117C18.3612 26.2004 18.0843 25.938 17.2536 26.3316C16.9475 26.4774 15.8836 27.9498 13.1873 32.0024L9.54379 37.4692V28.3142V19.1738H25.284H41.0241V28.1393ZM35.311 32.5127C37.8907 36.6382 40.0039 40.0495 40.0039 40.0932C40.0039 40.137 35.7482 40.1661 30.5307 40.1661C25.3277 40.1661 21.0574 40.137 21.0574 40.0932C21.0574 39.9474 30.4432 25.005 30.5307 25.005C30.5744 25.005 32.7314 28.3871 35.311 32.5127ZM19.5271 32.1774C20.489 33.6206 21.276 34.918 21.276 35.0492C21.276 35.1804 20.5911 36.3758 19.7603 37.7316L18.2446 40.1661H14.397H10.564L14.0909 34.8452C16.0439 31.9296 17.6616 29.5388 17.7054 29.5388C17.7491 29.5242 18.5652 30.7196 19.5271 32.1774Z" fill="url(#paint6_linear_12_224)"/>
<path d="M47.2184 17.2058C46.9852 17.4245 46.854 17.7306 46.854 18.0076C46.854 18.2846 46.9852 18.5907 47.2184 18.8094C47.5244 19.1301 47.6993 19.1738 48.6029 19.1738C49.5065 19.1738 49.6814 19.1301 49.9875 18.8094C50.2206 18.5907 50.3518 18.2846 50.3518 18.0076C50.3518 17.7306 50.2206 17.4245 49.9875 17.2058C49.6814 16.8851 49.5065 16.8414 48.6029 16.8414C47.6993 16.8414 47.5244 16.8851 47.2184 17.2058Z" fill="url(#paint7_linear_12_224)"/>
<path d="M53.0475 17.2058C52.8143 17.4245 52.6831 17.7306 52.6831 18.0076C52.6831 18.2846 52.8143 18.5907 53.0475 18.8094L53.3972 19.1738H57.9298H62.4624L62.8122 18.8094C63.0454 18.5907 63.1765 18.2846 63.1765 18.0076C63.1765 17.7306 63.0454 17.4245 62.8122 17.2058L62.4624 16.8414H57.9298H53.3972L53.0475 17.2058Z" fill="url(#paint8_linear_12_224)"/>
<path d="M47.2184 21.8707C46.9852 22.0894 46.854 22.3956 46.854 22.6725C46.854 22.9495 46.9852 23.2557 47.2184 23.4743L47.5681 23.8388H55.0156H62.463L62.8128 23.4743C63.046 23.2557 63.1771 22.9495 63.1771 22.6725C63.1771 22.3956 63.046 22.0894 62.8128 21.8707L62.463 21.5063H55.0156H47.5681L47.2184 21.8707Z" fill="url(#paint9_linear_12_224)"/>
<path d="M47.2184 26.5357C46.9852 26.7544 46.854 27.0605 46.854 27.3375C46.854 27.6145 46.9852 27.9206 47.2184 28.1393L47.5681 28.5037H55.0156H62.463L62.8128 28.1393C63.046 27.9206 63.1771 27.6145 63.1771 27.3375C63.1771 27.0605 63.046 26.7544 62.8128 26.5357L62.463 26.1712H55.0156H47.5681L47.2184 26.5357Z" fill="url(#paint10_linear_12_224)"/>
<path d="M47.2184 31.2007C46.9852 31.4193 46.854 31.7255 46.854 32.0025C46.854 32.2794 46.9852 32.5856 47.2184 32.8043L47.5681 33.1687H55.0156H62.463L62.8128 32.8043C63.046 32.5856 63.1771 32.2794 63.1771 32.0025C63.1771 31.7255 63.046 31.4193 62.8128 31.2007L62.463 30.8362H55.0156H47.5681L47.2184 31.2007Z" fill="url(#paint11_linear_12_224)"/>
<path d="M47.2184 35.8656C46.9852 36.0843 46.854 36.3904 46.854 36.6674C46.854 36.9444 46.9852 37.2505 47.2184 37.4692L47.5681 37.8336H55.0156H62.463L62.8128 37.4692C63.046 37.2505 63.1771 36.9444 63.1771 36.6674C63.1771 36.3904 63.046 36.0843 62.8128 35.8656L62.463 35.5012H55.0156H47.5681L47.2184 35.8656Z" fill="url(#paint12_linear_12_224)"/>
<path d="M47.2184 40.5306C46.9852 40.7492 46.854 41.0554 46.854 41.3324C46.854 41.6093 46.9852 41.9155 47.2184 42.1341L47.5681 42.4986H52.1007H56.6333L56.9831 42.1341C57.2163 41.9155 57.3474 41.6093 57.3474 41.3324C57.3474 41.0554 57.2163 40.7492 56.9831 40.5306L56.6333 40.1661H52.1007H47.5681L47.2184 40.5306Z" fill="url(#paint13_linear_12_224)"/>
<path d="M60.0431 40.5306C59.8099 40.7492 59.6787 41.0554 59.6787 41.3324C59.6787 41.6093 59.8099 41.9155 60.0431 42.1341C60.3491 42.4549 60.524 42.4986 61.4276 42.4986C62.3312 42.4986 62.5061 42.4549 62.8122 42.1341C63.0454 41.9155 63.1765 41.6093 63.1765 41.3324C63.1765 41.0554 63.0454 40.7492 62.8122 40.5306C62.5061 40.2099 62.3312 40.1661 61.4276 40.1661C60.524 40.1661 60.3491 40.2099 60.0431 40.5306Z" fill="url(#paint14_linear_12_224)"/>
<path d="M7.57627 47.528L7.21191 47.8779V55.3272V62.7766L7.57627 63.1265L7.92605 63.4909H15.3735H22.8209L23.1707 63.1265L23.535 62.7766V55.3272V47.8779L23.1707 47.528L22.8209 47.1636H15.3735H7.92605L7.57627 47.528ZM21.2032 55.3272V61.1584H15.3735H9.54379V55.3272V49.496H15.3735H21.2032V55.3272Z" fill="url(#paint15_linear_12_224)"/>
<path d="M27.3971 47.528L27.0327 47.8779V55.3272V62.7766L27.3971 63.1265L27.7469 63.4909H35.1943H42.6417L42.9915 63.1265L43.3558 62.7766V55.3272V47.8779L42.9915 47.528L42.6417 47.1636H35.1943H27.7469L27.3971 47.528ZM41.024 55.3272V61.1584H35.1943H29.3646V55.3272V49.496H35.1943H41.024V55.3272Z" fill="url(#paint16_linear_12_224)"/>
<path d="M47.2184 47.528L46.854 47.8779V55.3272V62.7766L47.2184 63.1265L47.5681 63.4909H55.0156H62.463L62.8128 63.1265L63.1771 62.7766V55.3272V47.8779L62.8128 47.528L62.463 47.1636H55.0156H47.5681L47.2184 47.528ZM60.8453 55.3272V61.1584H55.0156H49.1859V55.3272V49.496H55.0156H60.8453V55.3272Z" fill="url(#paint17_linear_12_224)"/>
<defs>
<linearGradient id="paint0_linear_12_224" x1="35.1943" y1="70.5102" x2="35.1943" y2="0.510193" gradientUnits="userSpaceOnUse">
<stop stop-color="#FF5C01"/>
<stop offset="0.375" stop-color="#04026A"/>
</linearGradient>
<linearGradient id="paint1_linear_12_224" x1="6.62697" y1="7.51144" x2="6.62697" y2="5.17897" gradientUnits="userSpaceOnUse">
<stop stop-color="#FF5C01"/>
<stop offset="0.375" stop-color="#04026A"/>
</linearGradient>
<linearGradient id="paint2_linear_12_224" x1="12.457" y1="7.51144" x2="12.457" y2="5.17897" gradientUnits="userSpaceOnUse">
<stop stop-color="#FF5C01"/>
<stop offset="0.375" stop-color="#04026A"/>
</linearGradient>
<linearGradient id="paint3_linear_12_224" x1="18.288" y1="7.51144" x2="18.288" y2="5.17897" gradientUnits="userSpaceOnUse">
<stop stop-color="#FF5C01"/>
<stop offset="0.375" stop-color="#04026A"/>
</linearGradient>
<linearGradient id="paint4_linear_12_224" x1="44.5219" y1="7.51144" x2="44.5219" y2="5.17897" gradientUnits="userSpaceOnUse">
<stop stop-color="#FF5C01"/>
<stop offset="0.375" stop-color="#04026A"/>
</linearGradient>
<linearGradient id="paint5_linear_12_224" x1="63.7596" y1="7.51144" x2="63.7596" y2="5.17897" gradientUnits="userSpaceOnUse">
<stop stop-color="#FF5C01"/>
<stop offset="0.375" stop-color="#04026A"/>
</linearGradient>
<linearGradient id="paint6_linear_12_224" x1="25.284" y1="42.4986" x2="25.284" y2="16.8413" gradientUnits="userSpaceOnUse">
<stop stop-color="#FF5C01"/>
<stop offset="0.375" stop-color="#04026A"/>
</linearGradient>
<linearGradient id="paint7_linear_12_224" x1="48.6029" y1="19.1738" x2="48.6029" y2="16.8414" gradientUnits="userSpaceOnUse">
<stop stop-color="#FF5C01"/>
<stop offset="0.375" stop-color="#04026A"/>
</linearGradient>
<linearGradient id="paint8_linear_12_224" x1="57.9298" y1="19.1738" x2="57.9298" y2="16.8414" gradientUnits="userSpaceOnUse">
<stop stop-color="#FF5C01"/>
<stop offset="0.375" stop-color="#04026A"/>
</linearGradient>
<linearGradient id="paint9_linear_12_224" x1="55.0156" y1="23.8388" x2="55.0156" y2="21.5063" gradientUnits="userSpaceOnUse">
<stop stop-color="#FF5C01"/>
<stop offset="0.375" stop-color="#04026A"/>
</linearGradient>
<linearGradient id="paint10_linear_12_224" x1="55.0156" y1="28.5037" x2="55.0156" y2="26.1712" gradientUnits="userSpaceOnUse">
<stop stop-color="#FF5C01"/>
<stop offset="0.375" stop-color="#04026A"/>
</linearGradient>
<linearGradient id="paint11_linear_12_224" x1="55.0156" y1="33.1687" x2="55.0156" y2="30.8362" gradientUnits="userSpaceOnUse">
<stop stop-color="#FF5C01"/>
<stop offset="0.375" stop-color="#04026A"/>
</linearGradient>
<linearGradient id="paint12_linear_12_224" x1="55.0156" y1="37.8336" x2="55.0156" y2="35.5012" gradientUnits="userSpaceOnUse">
<stop stop-color="#FF5C01"/>
<stop offset="0.375" stop-color="#04026A"/>
</linearGradient>
<linearGradient id="paint13_linear_12_224" x1="52.1007" y1="42.4986" x2="52.1007" y2="40.1661" gradientUnits="userSpaceOnUse">
<stop stop-color="#FF5C01"/>
<stop offset="0.375" stop-color="#04026A"/>
</linearGradient>
<linearGradient id="paint14_linear_12_224" x1="61.4276" y1="42.4986" x2="61.4276" y2="40.1661" gradientUnits="userSpaceOnUse">
<stop stop-color="#FF5C01"/>
<stop offset="0.375" stop-color="#04026A"/>
</linearGradient>
<linearGradient id="paint15_linear_12_224" x1="15.3735" y1="63.4909" x2="15.3735" y2="47.1636" gradientUnits="userSpaceOnUse">
<stop stop-color="#FF5C01"/>
<stop offset="0.375" stop-color="#04026A"/>
</linearGradient>
<linearGradient id="paint16_linear_12_224" x1="35.1943" y1="63.4909" x2="35.1943" y2="47.1636" gradientUnits="userSpaceOnUse">
<stop stop-color="#FF5C01"/>
<stop offset="0.375" stop-color="#04026A"/>
</linearGradient>
<linearGradient id="paint17_linear_12_224" x1="55.0156" y1="63.4909" x2="55.0156" y2="47.1636" gradientUnits="userSpaceOnUse">
<stop stop-color="#FF5C01"/>
<stop offset="0.375" stop-color="#04026A"/>
</linearGradient>
</defs>
</svg>
