<svg width="68" height="68" viewBox="0 0 68 68" fill="none" xmlns="http://www.w3.org/2000/svg">
<g clip-path="url(#clip0_119_26)">
<path fill-rule="evenodd" clip-rule="evenodd" d="M23.12 36.04L42.5 23.8C43.86 23.46 44.54 23.46 43.52 24.48L26.86 39.44L26.18 46.24L23.12 36.04Z" fill="black"/>
<path fill-rule="evenodd" clip-rule="evenodd" d="M34 0C15.3 0 0 15.3 0 34C0 52.7 15.3 68 34 68C52.7 68 68 52.7 68 34C68 15.3 52.7 0 34 0ZM44.88 48.62L50.66 20.74C51.34 18.02 49.64 17.34 48.28 17.68L13.6 30.94C11.22 31.96 11.22 33.32 13.26 34L22.44 37.06L25.5 47.26C25.84 47.94 25.84 48.62 26.86 48.62C27.54 48.62 27.88 47.94 28.56 47.6C28.9 46.92 30.94 45.22 32.98 43.18L41.82 49.98C43.18 51 44.54 50.66 44.88 48.62Z" fill="black"/>
</g>
<defs>
<clipPath id="clip0_119_26">
<rect width="68" height="68" fill="white"/>
</clipPath>
</defs>
</svg>
