<svg width="70" height="70" viewBox="0 0 70 70" fill="none" xmlns="http://www.w3.org/2000/svg">
<path d="M10.2601 0.527876C9.96371 0.810419 9.90726 1.0082 9.90726 1.65805V2.43504H5.74395H1.56653L1.22782 2.78822L0.875 3.12727V6.95573V10.7842L1.22782 11.1232L1.56653 11.4764H5.74395H9.90726V12.2534C9.90726 13.2141 10.3165 13.7368 11.0645 13.7368C11.4738 13.7368 11.8548 13.4118 14.6633 10.5864C17.5565 7.70446 17.8105 7.40779 17.8105 6.95573C17.8105 6.50366 17.5565 6.20699 14.6633 3.32505C11.8548 0.499621 11.4738 0.174698 11.0645 0.174698C10.754 0.174698 10.4859 0.287715 10.2601 0.527876ZM13.5907 8.42495L12.1371 9.88005L11.8125 9.55512L11.4738 9.21607H7.29637H3.13306V6.95573V4.69538H7.29637H11.4738L11.7843 4.37046L12.0948 4.03141L13.5766 5.50063L15.0585 6.95573L13.5907 8.42495Z" fill="url(#paint0_linear_12_213)"/>
<path d="M31.7115 0.527863C31.401 0.824532 31.3587 0.994057 31.3587 1.96883V3.07075L30.5401 3.32504C30.1026 3.46631 29.2417 3.80536 28.649 4.0879L27.5482 4.59647L26.7861 3.87599C26.1369 3.2544 25.9252 3.14138 25.4736 3.14138C24.9796 3.14138 24.7962 3.28265 22.2982 5.79729C19.7861 8.29779 19.645 8.48144 19.645 8.97589C19.645 9.42796 19.7579 9.63987 20.3788 10.2897L21.0986 11.0526L20.5905 12.1545C20.3083 12.7478 19.9695 13.6096 19.8284 14.0475L19.5744 14.8669H18.4736C17.4998 14.8669 17.3304 14.9093 17.0341 15.2201C16.8365 15.4037 16.6812 15.658 16.6812 15.7852C16.6812 15.9688 16.1732 15.9971 12.5038 15.9971C9.62479 15.9971 8.12882 16.0536 7.73366 16.1666C6.95745 16.3926 5.78608 17.5652 5.56027 18.3422C5.43326 18.7943 5.39092 23.6399 5.39092 38.9396V58.9436H4.6006C3.37277 58.9436 2.72358 59.1979 1.91914 60.0031C0.959467 60.9638 0.832451 61.4865 0.903016 64.0011C0.945355 65.9365 0.959467 65.9789 1.48164 67.0243C2.10261 68.3099 2.92116 69.101 4.23366 69.7226L5.17923 70.1747H35.8748H66.5704L67.5159 69.7226C68.8284 69.101 69.647 68.3099 70.2679 67.0243C70.7901 65.9789 70.8042 65.9365 70.8466 64.0011C70.9171 61.5995 70.776 61.0203 69.9292 60.0738C69.2095 59.2685 68.405 58.9436 67.1772 58.9436H66.3587V38.9396C66.3587 23.88 66.3163 18.7801 66.1893 18.3704C66.1046 18.0596 65.7518 17.4946 65.4131 17.1273C64.4393 16.0395 64.1994 15.9971 59.274 15.9971C55.5764 15.9971 55.0683 15.9688 55.0683 15.7852C55.0683 15.658 54.9131 15.4037 54.7155 15.2201C54.4191 14.9093 54.2498 14.8669 53.276 14.8669H52.1752L51.9212 14.0475C51.78 13.6096 51.4413 12.7478 51.1591 12.1545L50.651 11.0526L51.3708 10.2897C51.9917 9.63987 52.1046 9.42796 52.1046 8.97589C52.1046 8.48144 51.9635 8.29779 49.4514 5.79729C46.9534 3.28265 46.77 3.14138 46.276 3.14138C45.8244 3.14138 45.6127 3.2544 44.9635 3.86186L44.2014 4.59647L42.9595 4.01727C42.2679 3.69234 41.407 3.35329 41.0542 3.2544L40.3909 3.08487V1.96883C40.3909 0.994057 40.3486 0.824532 40.0381 0.527863L39.6994 0.174683H35.8748H32.0502L31.7115 0.527863ZM38.1329 3.36742C38.1329 4.20092 38.1752 4.32806 38.5421 4.7095C38.7679 4.93553 39.0784 5.11918 39.2195 5.11918C39.7417 5.11918 41.5764 5.82554 42.903 6.54602C44.4837 7.37952 44.6671 7.37952 45.6127 6.44713L46.2619 5.82554L47.8425 7.42191L49.4232 9.01827L48.8022 9.62574C47.8708 10.544 47.8708 10.77 48.7175 12.3523C49.4232 13.6944 50.1288 15.5168 50.1288 16.0395C50.1288 16.1807 50.3123 16.4915 50.5381 16.7176C50.9191 17.0849 51.0462 17.1273 51.8788 17.1273H52.8103V19.3876V21.6479H51.8788C51.0462 21.6479 50.9191 21.6903 50.5381 22.0576C50.3123 22.2837 50.1288 22.5945 50.1288 22.7357C50.1288 23.2584 49.4232 25.0808 48.7175 26.4229C47.8708 28.0052 47.8708 28.2312 48.8022 29.1495L49.4232 29.7569L47.8425 31.3533L46.2619 32.9497L45.6127 32.3281C44.6671 31.3957 44.4837 31.3957 42.903 32.2292C41.5764 32.9497 39.7417 33.656 39.2195 33.656C39.0784 33.656 38.7679 33.8397 38.5421 34.0657C38.1752 34.4471 38.1329 34.5743 38.1329 35.4078V36.3402H35.8748H33.6167V35.4078C33.6167 34.5743 33.5744 34.4471 33.2075 34.0657C32.9816 33.8397 32.6712 33.656 32.53 33.656C32.0079 33.656 30.1732 32.9497 28.8466 32.2292C27.2659 31.3957 27.0825 31.3957 26.1369 32.3281L25.4877 32.9497L23.907 31.3533L22.3264 29.7569L22.9474 29.1495C23.8788 28.2312 23.8788 28.0052 23.032 26.4229C22.3264 25.0808 21.6208 23.2584 21.6208 22.7357C21.6208 22.5945 21.4373 22.2837 21.2115 22.0576C20.8304 21.6903 20.7034 21.6479 19.8708 21.6479H18.9393V19.3876V17.1273H19.8708C20.7034 17.1273 20.8304 17.0849 21.2115 16.7176C21.4373 16.4915 21.6208 16.1807 21.6208 16.0395C21.6208 15.5168 22.3264 13.6802 23.0462 12.3523C23.8788 10.77 23.8788 10.5864 22.9474 9.63987L22.3264 8.99002L23.9212 7.40778L25.5159 5.82554L26.1228 6.44713C27.0401 7.37952 27.2659 7.37952 28.8466 6.53189C30.1873 5.82554 32.0079 5.11918 32.53 5.11918C32.6712 5.11918 32.9816 4.93553 33.2075 4.7095C33.5744 4.32806 33.6167 4.20092 33.6167 3.36742V2.43503H35.8748H38.1329V3.36742ZM16.6812 19.3876V20.5178H13.647C10.5986 20.5178 10.5986 20.5178 10.2599 20.8709L9.90705 21.21V38.6005V55.991L10.2599 56.3301L10.5986 56.6833H35.8748H61.151L61.4897 56.3301L61.8425 55.991V38.6005V21.21L61.4897 20.8709C61.151 20.5178 61.151 20.5178 58.1026 20.5178H55.0683V19.3876V18.2574H59.2316H63.4091L63.7478 18.6106L64.1006 18.9497V38.9537V58.9436H35.8748H7.64898V38.9537V18.9497L8.00181 18.6106L8.34052 18.2574H12.5179H16.6812V19.3876ZM16.6812 22.99C16.6812 23.1172 16.8365 23.3715 17.0341 23.5551C17.3304 23.8659 17.4998 23.9083 18.4736 23.9083H19.5885L19.7579 24.5723C19.8566 24.9254 20.1954 25.7872 20.52 26.4794L21.0986 27.7226L20.3647 28.4855C19.7579 29.1353 19.645 29.3472 19.645 29.7993C19.645 30.2938 19.7861 30.4774 22.2982 32.9779C24.7962 35.4925 24.9796 35.6338 25.4736 35.6338C25.9252 35.6338 26.1369 35.5208 26.7861 34.8992L27.5482 34.1787L28.649 34.6873C29.2417 34.9698 30.1026 35.3089 30.5401 35.4502L31.3587 35.7044V36.8064C31.3587 37.7811 31.401 37.9507 31.7115 38.2473L32.0502 38.6005H35.8748H39.6994L40.0381 38.2473C40.3486 37.9507 40.3909 37.7811 40.3909 36.8064V35.6903L41.0542 35.5208C41.407 35.4219 42.2679 35.0829 42.9595 34.7579L44.2014 34.1787L44.9635 34.9133C45.6127 35.5208 45.8244 35.6338 46.276 35.6338C46.77 35.6338 46.9534 35.4925 49.4514 32.9779C51.9635 30.4774 52.1046 30.2938 52.1046 29.7993C52.1046 29.3472 51.9917 29.1353 51.3708 28.4855L50.651 27.7226L51.1591 26.6207C51.4413 26.0274 51.78 25.1656 51.9212 24.7277L52.1752 23.9083H53.276C54.2498 23.9083 54.4191 23.8659 54.7155 23.5551C54.9131 23.3715 55.0683 23.1172 55.0683 22.99C55.0683 22.8064 55.3788 22.7781 57.3264 22.7781H59.5845V38.6005V54.4229H35.8748H12.1651V38.6005V22.7781H14.4232C16.3708 22.7781 16.6812 22.8064 16.6812 22.99ZM27.9716 61.9951C27.9716 62.433 28.0421 63.0546 28.1409 63.3795C28.3667 64.1565 29.5381 65.3291 30.3143 65.5551C31.1329 65.7953 40.6167 65.7953 41.4353 65.5551C42.2115 65.3291 43.3829 64.1565 43.6087 63.3795C43.7075 63.0546 43.778 62.433 43.778 61.9951V61.2039H55.8445H67.9252L68.2639 61.5571C68.6026 61.882 68.6167 61.9951 68.6167 63.4784C68.6167 64.3402 68.5462 65.3149 68.4474 65.6399C68.2216 66.4169 67.0502 67.5894 66.274 67.8154C65.4272 68.0697 6.32237 68.0697 5.4756 67.8154C4.69939 67.5894 3.52802 66.4169 3.30221 65.6399C3.20342 65.3149 3.13285 64.3402 3.13285 63.4784C3.13285 61.9951 3.14697 61.882 3.48568 61.5571L3.82439 61.2039H15.905H27.9716V61.9951ZM41.52 61.9809C41.52 62.6308 41.4635 62.8286 41.1671 63.1111L40.8284 63.4643H35.8748H30.9212L30.5825 63.1111C30.2861 62.8286 30.2296 62.6308 30.2296 61.9809V61.2039H35.8748H41.52V61.9809Z" fill="url(#paint1_linear_12_213)"/>
<path d="M34.3227 7.05463C28.2118 7.97289 23.8509 12.7055 23.4981 18.7519C23.1735 24.6288 27.0122 29.8558 32.8409 31.4381C34.3509 31.8478 37.3005 31.8619 38.7542 31.4805C45.9941 29.5592 49.9457 22.3402 47.5888 15.3331C46.4457 11.9285 43.4538 8.87703 40.0949 7.70448C38.3026 7.08288 35.9034 6.81447 34.3227 7.05463ZM38.8671 9.68228C40.5747 10.2191 41.732 10.9537 43.0727 12.3099C44.3993 13.652 45.2602 15.1212 45.7118 16.8447C46.0505 18.1021 46.0505 20.6873 45.7118 21.9305C45.4155 22.99 44.6392 24.6429 44.1453 25.2504L43.8066 25.6742L43.7078 25.2504C43.2562 23.0607 42.6634 21.8457 41.4638 20.6308L40.7864 19.9386L41.0122 19.4159C41.6755 17.876 41.6614 16.2514 40.9699 14.7822C40.3913 13.5249 39.5727 12.7055 38.3026 12.0698C37.2864 11.5753 37.1594 11.5471 35.8751 11.5471C34.5909 11.5471 34.4638 11.5753 33.4477 12.0698C32.1634 12.7055 31.3731 13.5249 30.7521 14.8387C30.3429 15.7004 30.3005 15.9123 30.3005 17.1273C30.3146 18.2151 30.3711 18.6106 30.6392 19.204L30.9638 19.9527L30.3852 20.5319C29.1997 21.6621 28.6352 22.7781 28.0142 25.1798L27.8872 25.6742L27.2945 24.7701C25.3187 21.7327 25.2199 17.6641 27.0546 14.3442C27.7038 13.1858 29.5243 11.3352 30.6957 10.6429C31.6413 10.0778 33.0808 9.54101 34.0969 9.35735C35.3247 9.13132 37.6392 9.28672 38.8671 9.68228ZM36.9195 13.9063C38.1332 14.2736 39.2622 15.8276 39.2622 17.1273C39.2622 18.879 37.6251 20.5178 35.8751 20.5178C34.1251 20.5178 32.488 18.879 32.488 17.1273C32.488 16.2373 32.8126 15.5168 33.5465 14.7963C34.5344 13.7933 35.5929 13.5249 36.9195 13.9063ZM33.5465 22.2131C34.4638 22.6792 34.6332 22.7075 35.8892 22.7075C37.1594 22.7075 37.2864 22.6792 38.2884 22.1848L39.3328 21.6621L39.8691 22.1848C40.1655 22.4673 40.6453 23.1737 40.9276 23.7529C41.4215 24.7559 41.4356 24.8407 41.4497 26.3664V27.9345L40.3913 28.4573C38.8106 29.2484 37.7663 29.4744 35.8751 29.4744C33.984 29.4744 32.9396 29.2484 31.359 28.4573L30.3005 27.9345V26.3806C30.3146 24.9396 30.3429 24.7559 30.7521 23.8801C31.1614 23.0042 32.2763 21.5773 32.4739 21.6903C32.5163 21.7045 33.0102 21.9446 33.5465 22.2131Z" fill="url(#paint2_linear_12_213)"/>
<path d="M22.3264 41.0445C21.6349 41.2706 20.4494 42.4855 20.2377 43.206C20.0119 43.9971 20.0119 49.0264 20.2377 49.8175C20.4635 50.5945 21.6349 51.767 22.4111 51.9931C23.272 52.2474 26.0805 52.2191 26.8849 51.9366C27.9716 51.5693 29.1006 50.0718 29.1006 48.9981C29.1006 48.8145 28.9172 48.7721 27.9716 48.7721C27.0542 48.7721 26.8426 48.8145 26.8426 48.984C26.8426 49.1111 26.6873 49.3654 26.4897 49.5491C26.1651 49.8881 26.0522 49.9023 24.5845 49.9023C23.1167 49.9023 23.0038 49.8881 22.6792 49.5491C22.3264 49.21 22.3264 49.1818 22.3264 46.5117C22.3264 43.8417 22.3264 43.8135 22.6792 43.4744C23.0038 43.1354 23.1167 43.1212 24.5845 43.1212C26.0522 43.1212 26.1651 43.1354 26.4897 43.4744C26.6873 43.6581 26.8426 43.9124 26.8426 44.0395C26.8426 44.209 27.0542 44.2514 27.9716 44.2514C28.9172 44.2514 29.1006 44.209 29.1006 44.0254C29.1006 42.9517 27.9716 41.4542 26.8849 41.0869C26.1087 40.8185 23.1167 40.7903 22.3264 41.0445Z" fill="url(#paint3_linear_12_213)"/>
<path d="M30.5823 41.214L30.2295 41.5531V46.8649V52.1626H31.3585H32.4876V49.9022V47.6419H33.4331C34.5622 47.6419 35.1549 47.9809 35.9593 49.0828C36.4674 49.7751 37.0037 51.1737 37.0037 51.8235C37.0037 52.1484 37.0319 52.1626 38.1327 52.1626H39.2618V51.767C39.2476 50.6933 38.4714 48.546 37.7517 47.656L37.4835 47.3311L38.2033 46.5965C39.6005 45.1838 39.6287 43.3048 38.2456 41.8921C37.3424 40.9739 36.8484 40.8609 33.6589 40.8609C30.9351 40.8609 30.921 40.8609 30.5823 41.214ZM36.6509 43.4744C36.8767 43.6863 37.0037 43.983 37.0037 44.2514C37.0037 44.5198 36.8767 44.8165 36.6509 45.0284C36.3263 45.3674 36.2416 45.3815 34.3928 45.3815H32.4876V44.2514V43.1212H34.3928C36.2416 43.1212 36.3263 43.1353 36.6509 43.4744Z" fill="url(#paint4_linear_12_213)"/>
<path d="M40.7439 41.214L40.3911 41.5531V46.8649V52.1626H41.5201H42.6492V49.5067L42.6633 46.8649L43.9335 49.3654C45.0201 51.5268 45.246 51.8659 45.6129 52.0072C46.1068 52.1767 46.5585 52.0495 46.8972 51.654C47.0242 51.4986 47.6451 50.3684 48.2661 49.1252L49.4093 46.8649V49.5067L49.4234 52.1626H50.5524H51.6814V46.8649V41.5531L51.3286 41.214C50.9476 40.8185 50.3407 40.7478 49.9173 41.0586C49.7621 41.1716 48.8447 42.8528 47.871 44.8023C46.8972 46.7519 46.0786 48.3482 46.0363 48.3482C45.9939 48.3482 45.1754 46.7519 44.2016 44.8023C43.2278 42.8528 42.3105 41.1716 42.1552 41.0586C41.7318 40.7478 41.125 40.8185 40.7439 41.214Z" fill="url(#paint5_linear_12_213)"/>
<path d="M57.0866 3.32505C54.1935 6.20699 53.9395 6.50366 53.9395 6.95573C53.9395 7.40779 54.1935 7.70446 57.0866 10.5864C59.8951 13.4118 60.2761 13.7368 60.6854 13.7368C61.4334 13.7368 61.8427 13.2141 61.8427 12.2534V11.4764H66.006H70.1834L70.5221 11.1232L70.8749 10.7842V6.95573V3.12727L70.5221 2.78822L70.1834 2.43504H66.006H61.8427V1.65805C61.8427 0.697402 61.4334 0.174698 60.6854 0.174698C60.2761 0.174698 59.8951 0.499621 57.0866 3.32505ZM64.4536 4.69538H68.6169V6.95573V9.21607H64.4536H60.2761L59.9374 9.55512L59.6128 9.88005L58.1592 8.42495L56.6915 6.95573L58.1592 5.4865L59.6128 4.03141L59.9374 4.35633L60.2761 4.69538H64.4536Z" fill="url(#paint6_linear_12_213)"/>
<defs>
<linearGradient id="paint0_linear_12_213" x1="9.34274" y1="13.7368" x2="9.34274" y2="0.174698" gradientUnits="userSpaceOnUse">
<stop stop-color="#FF5C01"/>
<stop offset="0.401042" stop-color="#04026A"/>
</linearGradient>
<linearGradient id="paint1_linear_12_213" x1="35.8746" y1="70.1747" x2="35.8746" y2="0.174683" gradientUnits="userSpaceOnUse">
<stop stop-color="#FF5C01"/>
<stop offset="0.401042" stop-color="#04026A"/>
</linearGradient>
<linearGradient id="paint2_linear_12_213" x1="35.8747" y1="31.7563" x2="35.8747" y2="6.96741" gradientUnits="userSpaceOnUse">
<stop stop-color="#FF5C01"/>
<stop offset="0.401042" stop-color="#04026A"/>
</linearGradient>
<linearGradient id="paint3_linear_12_213" x1="24.5845" y1="52.1674" x2="24.5845" y2="40.8688" gradientUnits="userSpaceOnUse">
<stop stop-color="#FF5C01"/>
<stop offset="0.401042" stop-color="#04026A"/>
</linearGradient>
<linearGradient id="paint4_linear_12_213" x1="34.7484" y1="52.1626" x2="34.7484" y2="40.8609" gradientUnits="userSpaceOnUse">
<stop stop-color="#FF5C01"/>
<stop offset="0.401042" stop-color="#04026A"/>
</linearGradient>
<linearGradient id="paint5_linear_12_213" x1="46.0363" y1="52.1626" x2="46.0363" y2="40.8647" gradientUnits="userSpaceOnUse">
<stop stop-color="#FF5C01"/>
<stop offset="0.401042" stop-color="#04026A"/>
</linearGradient>
<linearGradient id="paint6_linear_12_213" x1="62.4072" y1="13.7368" x2="62.4072" y2="0.174698" gradientUnits="userSpaceOnUse">
<stop stop-color="#FF5C01"/>
<stop offset="0.401042" stop-color="#04026A"/>
</linearGradient>
</defs>
</svg>
