<svg width="98" height="98" viewBox="0 0 98 98" fill="none" xmlns="http://www.w3.org/2000/svg">
<path d="M13.2383 0.738281C12.8281 1.12891 12.75 1.40234 12.75 2.30078V3.375H6.98828H1.20703L0.738281 3.86328L0.25 4.33203V9.625V14.918L0.738281 15.3867L1.20703 15.875H6.98828H12.75V16.9492C12.75 18.2773 13.3164 19 14.3516 19C14.918 19 15.4453 18.5508 19.332 14.6445C23.3359 10.6602 23.6875 10.25 23.6875 9.625C23.6875 9 23.3359 8.58984 19.332 4.60547C15.4453 0.699219 14.918 0.25 14.3516 0.25C13.9219 0.25 13.5508 0.40625 13.2383 0.738281ZM17.8477 11.6562L15.8359 13.668L15.3867 13.2188L14.918 12.75H9.13672H3.375V9.625V6.5H9.13672H14.918L15.3477 6.05078L15.7773 5.58203L17.8281 7.61328L19.8789 9.625L17.8477 11.6562Z" fill="url(#paint0_linear_12_34)"/>
<path d="M42.9259 0.738281C42.4962 1.14844 42.4376 1.38281 42.4376 2.73047V4.25391L41.3048 4.60547C40.6993 4.80078 39.5079 5.26953 38.6876 5.66016L37.1642 6.36328L36.1095 5.36719C35.211 4.50781 34.9181 4.35156 34.2931 4.35156C33.6095 4.35156 33.3556 4.54688 29.8985 8.02344C26.422 11.4805 26.2267 11.7344 26.2267 12.418C26.2267 13.043 26.3829 13.3359 27.2423 14.2344L28.2384 15.2891L27.5352 16.8125C27.1446 17.6328 26.6759 18.8242 26.4806 19.4297L26.129 20.5625H24.6056C23.2579 20.5625 23.0235 20.6211 22.6134 21.0508C22.3399 21.3047 22.1251 21.6562 22.1251 21.832C22.1251 22.0859 21.422 22.125 16.3438 22.125C12.3595 22.125 10.2892 22.2031 9.74228 22.3594C8.66806 22.6719 7.04697 24.293 6.73447 25.3672C6.55869 25.9922 6.50009 32.6914 6.50009 53.8438V81.5H5.40634C3.70712 81.5 2.80869 81.8516 1.69541 82.9648C0.367281 84.293 0.191499 85.0156 0.289156 88.4922C0.347749 91.168 0.367281 91.2266 1.08994 92.6719C1.94931 94.4492 3.08212 95.543 4.89853 96.4023L6.20712 97.0273H48.6876H91.1681L92.4766 96.4023C94.2931 95.543 95.4259 94.4492 96.2852 92.6719C97.0079 91.2266 97.0274 91.168 97.086 88.4922C97.1837 85.1719 96.9884 84.3711 95.8165 83.0625C94.8204 81.9492 93.7071 81.5 92.0079 81.5H90.8751V53.8438C90.8751 33.0234 90.8165 25.9727 90.6407 25.4062C90.5235 24.9766 90.0352 24.1953 89.5665 23.6875C88.2188 22.1836 87.8868 22.125 81.0704 22.125C75.9532 22.125 75.2501 22.0859 75.2501 21.832C75.2501 21.6562 75.0352 21.3047 74.7618 21.0508C74.3516 20.6211 74.1173 20.5625 72.7696 20.5625H71.2462L70.8946 19.4297C70.6993 18.8242 70.2306 17.6328 69.8399 16.8125L69.1368 15.2891L70.1329 14.2344C70.9923 13.3359 71.1485 13.043 71.1485 12.418C71.1485 11.7344 70.9532 11.4805 67.4766 8.02344C64.0196 4.54688 63.7657 4.35156 63.0821 4.35156C62.4571 4.35156 62.1642 4.50781 61.2657 5.34766L60.211 6.36328L58.4923 5.5625C57.5352 5.11328 56.3438 4.64453 55.8556 4.50781L54.9376 4.27344V2.73047C54.9376 1.38281 54.879 1.14844 54.4493 0.738281L53.9806 0.25H48.6876H43.3946L42.9259 0.738281ZM51.8126 4.66406C51.8126 5.81641 51.8712 5.99219 52.379 6.51953C52.6915 6.83203 53.1212 7.08594 53.3165 7.08594C54.0392 7.08594 56.5782 8.0625 58.4142 9.05859C60.6017 10.2109 60.8556 10.2109 62.1642 8.92188L63.0626 8.0625L65.2501 10.2695L67.4376 12.4766L66.5782 13.3164C65.2891 14.5859 65.2891 14.8984 66.461 17.0859C67.4376 18.9414 68.4141 21.4609 68.4141 22.1836C68.4141 22.3789 68.6681 22.8086 68.9806 23.1211C69.5079 23.6289 69.6837 23.6875 70.836 23.6875H72.1251V26.8125V29.9375H70.836C69.6837 29.9375 69.5079 29.9961 68.9806 30.5039C68.6681 30.8164 68.4141 31.2461 68.4141 31.4414C68.4141 32.1641 67.4376 34.6836 66.461 36.5391C65.2891 38.7266 65.2891 39.0391 66.5782 40.3086L67.4376 41.1484L65.2501 43.3555L63.0626 45.5625L62.1642 44.7031C60.8556 43.4141 60.6017 43.4141 58.4142 44.5664C56.5782 45.5625 54.0392 46.5391 53.3165 46.5391C53.1212 46.5391 52.6915 46.793 52.379 47.1055C51.8712 47.6328 51.8126 47.8086 51.8126 48.9609V50.25H48.6876H45.5626V48.9609C45.5626 47.8086 45.504 47.6328 44.9962 47.1055C44.6837 46.793 44.254 46.5391 44.0587 46.5391C43.336 46.5391 40.797 45.5625 38.961 44.5664C36.7735 43.4141 36.5196 43.4141 35.211 44.7031L34.3126 45.5625L32.1251 43.3555L29.9376 41.1484L30.797 40.3086C32.086 39.0391 32.086 38.7266 30.9142 36.5391C29.9376 34.6836 28.961 32.1641 28.961 31.4414C28.961 31.2461 28.7071 30.8164 28.3946 30.5039C27.8673 29.9961 27.6915 29.9375 26.5392 29.9375H25.2501V26.8125V23.6875H26.5392C27.6915 23.6875 27.8673 23.6289 28.3946 23.1211C28.7071 22.8086 28.961 22.3789 28.961 22.1836C28.961 21.4609 29.9376 18.9219 30.9337 17.0859C32.086 14.8984 32.086 14.6445 30.797 13.3359L29.9376 12.4375L32.1446 10.25L34.3517 8.0625L35.1915 8.92188C36.461 10.2109 36.7735 10.2109 38.961 9.03906C40.8165 8.0625 43.336 7.08594 44.0587 7.08594C44.254 7.08594 44.6837 6.83203 44.9962 6.51953C45.504 5.99219 45.5626 5.81641 45.5626 4.66406V3.375H48.6876H51.8126V4.66406ZM22.1251 26.8125V28.375H17.9259C13.7071 28.375 13.7071 28.375 13.2384 28.8633L12.7501 29.332V53.375V77.418L13.2384 77.8867L13.7071 78.375H48.6876H83.6681L84.1368 77.8867L84.6251 77.418V53.375V29.332L84.1368 28.8633C83.6681 28.375 83.6681 28.375 79.4493 28.375H75.2501V26.8125V25.25H81.0118H86.7931L87.2618 25.7383L87.7501 26.207V53.8633V81.5H48.6876H9.62509V53.8633V26.207L10.1134 25.7383L10.5821 25.25H16.3634H22.1251V26.8125ZM22.1251 31.793C22.1251 31.9688 22.3399 32.3203 22.6134 32.5742C23.0235 33.0039 23.2579 33.0625 24.6056 33.0625H26.1485L26.3829 33.9805C26.5196 34.4688 26.9884 35.6602 27.4376 36.6172L28.2384 38.3359L27.2227 39.3906C26.3829 40.2891 26.2267 40.582 26.2267 41.207C26.2267 41.8906 26.422 42.1445 29.8985 45.6016C33.3556 49.0781 33.6095 49.2734 34.2931 49.2734C34.9181 49.2734 35.211 49.1172 36.1095 48.2578L37.1642 47.2617L38.6876 47.9648C39.5079 48.3555 40.6993 48.8242 41.3048 49.0195L42.4376 49.3711V50.8945C42.4376 52.2422 42.4962 52.4766 42.9259 52.8867L43.3946 53.375H48.6876H53.9806L54.4493 52.8867C54.879 52.4766 54.9376 52.2422 54.9376 50.8945V49.3516L55.8556 49.1172C56.3438 48.9805 57.5352 48.5117 58.4923 48.0625L60.211 47.2617L61.2657 48.2773C62.1642 49.1172 62.4571 49.2734 63.0821 49.2734C63.7657 49.2734 64.0196 49.0781 67.4766 45.6016C70.9532 42.1445 71.1485 41.8906 71.1485 41.207C71.1485 40.582 70.9923 40.2891 70.1329 39.3906L69.1368 38.3359L69.8399 36.8125C70.2306 35.9922 70.6993 34.8008 70.8946 34.1953L71.2462 33.0625H72.7696C74.1173 33.0625 74.3516 33.0039 74.7618 32.5742C75.0352 32.3203 75.2501 31.9688 75.2501 31.793C75.2501 31.5391 75.6798 31.5 78.3751 31.5H81.5001V53.375V75.25H48.6876H15.8751V53.375V31.5H19.0001C21.6954 31.5 22.1251 31.5391 22.1251 31.793ZM37.7501 85.7188C37.7501 86.3242 37.8477 87.1836 37.9845 87.6328C38.297 88.707 39.9181 90.3281 40.9923 90.6406C42.1251 90.9727 55.2501 90.9727 56.3829 90.6406C57.4571 90.3281 59.0782 88.707 59.3907 87.6328C59.5274 87.1836 59.6251 86.3242 59.6251 85.7188V84.625H76.3243H93.0431L93.5118 85.1133C93.9806 85.5625 94.0001 85.7188 94.0001 87.7695C94.0001 88.9609 93.9024 90.3086 93.7657 90.7578C93.4532 91.832 91.8321 93.4531 90.7579 93.7656C89.586 94.1172 7.78915 94.1172 6.61728 93.7656C5.54306 93.4531 3.92197 91.832 3.60947 90.7578C3.47275 90.3086 3.37509 88.9609 3.37509 87.7695C3.37509 85.7188 3.39462 85.5625 3.86337 85.1133L4.33212 84.625H21.0509H37.7501V85.7188ZM56.5001 85.6992C56.5001 86.5977 56.422 86.8711 56.0118 87.2617L55.5431 87.75H48.6876H41.8321L41.3634 87.2617C40.9532 86.8711 40.8751 86.5977 40.8751 85.6992V84.625H48.6876H56.5001V85.6992Z" fill="url(#paint1_linear_12_34)"/>
<path d="M46.5391 9.76175C38.0821 11.0313 32.047 17.5742 31.5587 25.9336C31.1095 34.0586 36.422 41.2852 44.4884 43.4727C46.5782 44.0391 50.6602 44.0586 52.672 43.5313C62.6915 40.875 68.1602 30.8946 64.8985 21.2071C63.3165 16.5 59.1759 12.2813 54.5274 10.6602C52.047 9.80081 48.7266 9.42971 46.5391 9.76175ZM52.8282 13.3946C55.1915 14.1367 56.793 15.1524 58.6485 17.0274C60.4845 18.8828 61.6759 20.9141 62.3009 23.2969C62.7696 25.0352 62.7696 28.6094 62.3009 30.3282C61.8907 31.793 60.8165 34.0782 60.1329 34.918L59.6641 35.5039L59.5274 34.918C58.9024 31.8907 58.0821 30.211 56.422 28.5313L55.4845 27.5742L55.797 26.8516C56.7149 24.7227 56.6954 22.4766 55.7384 20.4453C54.9376 18.7071 53.8048 17.5742 52.047 16.6953C50.6407 16.0117 50.4649 15.9727 48.6876 15.9727C46.9102 15.9727 46.7345 16.0117 45.3282 16.6953C43.5509 17.5742 42.4571 18.7071 41.5977 20.5235C41.0313 21.7149 40.9727 22.0078 40.9727 23.6875C40.9923 25.1914 41.0704 25.7383 41.4415 26.5586L41.8907 27.5938L41.0899 28.3946C39.4493 29.9571 38.6681 31.5 37.8087 34.8203L37.6329 35.5039L36.8126 34.2539C34.0782 30.0547 33.9415 24.4297 36.4806 19.8399C37.379 18.2383 39.8985 15.6797 41.5196 14.7227C42.8282 13.9414 44.8204 13.1992 46.2266 12.9453C47.9259 12.6328 51.129 12.8477 52.8282 13.3946ZM50.1329 19.2344C51.8126 19.7422 53.3751 21.8907 53.3751 23.6875C53.3751 26.1094 51.1095 28.375 48.6876 28.375C46.2657 28.375 44.0001 26.1094 44.0001 23.6875C44.0001 22.4571 44.4493 21.461 45.4649 20.4649C46.8321 19.0782 48.297 18.7071 50.1329 19.2344ZM45.4649 30.7188C46.7345 31.3633 46.9688 31.4024 48.7071 31.4024C50.4649 31.4024 50.6407 31.3633 52.0274 30.6797L53.4727 29.9571L54.2149 30.6797C54.6251 31.0703 55.2891 32.0469 55.6798 32.8477C56.3634 34.2344 56.3829 34.3516 56.4024 36.461V38.6289L54.9376 39.3516C52.7501 40.4453 51.3048 40.7578 48.6876 40.7578C46.0704 40.7578 44.6251 40.4453 42.4376 39.3516L40.9727 38.6289V36.4805C40.9923 34.4883 41.0313 34.2344 41.5977 33.0235C42.1641 31.8125 43.7071 29.8399 43.9806 29.9961C44.0391 30.0157 44.7227 30.3477 45.4649 30.7188Z" fill="url(#paint2_linear_12_34)"/>
<path d="M29.9375 56.7539C28.9805 57.0664 27.3398 58.7461 27.0469 59.7422C26.7344 60.8359 26.7344 67.789 27.0469 68.8828C27.3594 69.957 28.9805 71.5781 30.0547 71.8906C31.2461 72.2422 35.1328 72.2031 36.2461 71.8125C37.75 71.3047 39.3125 69.2344 39.3125 67.75C39.3125 67.4961 39.0586 67.4375 37.75 67.4375C36.4805 67.4375 36.1875 67.4961 36.1875 67.7304C36.1875 67.9062 35.9727 68.2578 35.6992 68.5117C35.25 68.9804 35.0938 69 33.0625 69C31.0312 69 30.875 68.9804 30.4258 68.5117C29.9375 68.0429 29.9375 68.0039 29.9375 64.3125C29.9375 60.6211 29.9375 60.582 30.4258 60.1133C30.875 59.6445 31.0312 59.625 33.0625 59.625C35.0938 59.625 35.25 59.6445 35.6992 60.1133C35.9727 60.3672 36.1875 60.7187 36.1875 60.8945C36.1875 61.1289 36.4805 61.1875 37.75 61.1875C39.0586 61.1875 39.3125 61.1289 39.3125 60.875C39.3125 59.3906 37.75 57.3203 36.2461 56.8125C35.1719 56.4414 31.0312 56.4023 29.9375 56.7539Z" fill="url(#paint3_linear_12_34)"/>
<path d="M41.3633 56.9883L40.875 57.457V64.8008V72.125H42.4375H44V69V65.875H45.3086C46.8711 65.875 47.6914 66.3438 48.8047 67.8672C49.5078 68.8242 50.25 70.7578 50.25 71.6562C50.25 72.1055 50.2891 72.125 51.8125 72.125H53.375V71.5781C53.3555 70.0938 52.2812 67.125 51.2852 65.8945L50.9141 65.4453L51.9102 64.4297C53.8437 62.4766 53.8828 59.8789 51.9687 57.9258C50.7187 56.6562 50.0352 56.5 45.6211 56.5C41.8516 56.5 41.832 56.5 41.3633 56.9883ZM49.7617 60.1133C50.0742 60.4062 50.25 60.8164 50.25 61.1875C50.25 61.5586 50.0742 61.9688 49.7617 62.2617C49.3125 62.7305 49.1953 62.75 46.6367 62.75H44V61.1875V59.625H46.6367C49.1953 59.625 49.3125 59.6445 49.7617 60.1133Z" fill="url(#paint4_linear_12_34)"/>
<path d="M55.4258 56.9883L54.9375 57.457V64.8008V72.125H56.5H58.0625V68.4531L58.082 64.8008L59.8398 68.2578C61.3438 71.2461 61.6562 71.7148 62.1641 71.9102C62.8477 72.1445 63.4727 71.9688 63.9414 71.4219C64.1172 71.207 64.9766 69.6445 65.8359 67.9258L67.418 64.8008V68.4531L67.4375 72.125H69H70.5625V64.8008V57.457L70.0742 56.9883C69.5469 56.4414 68.707 56.3438 68.1211 56.7734C67.9062 56.9297 66.6367 59.2539 65.2891 61.9492C63.9414 64.6445 62.8086 66.8516 62.75 66.8516C62.6914 66.8516 61.5586 64.6445 60.2109 61.9492C58.8633 59.2539 57.5938 56.9297 57.3789 56.7734C56.793 56.3438 55.9531 56.4414 55.4258 56.9883Z" fill="url(#paint5_linear_12_34)"/>
<path d="M78.043 4.60547C74.0391 8.58984 73.6875 9 73.6875 9.625C73.6875 10.25 74.0391 10.6602 78.043 14.6445C81.9297 18.5508 82.457 19 83.0234 19C84.0586 19 84.625 18.2773 84.625 16.9492V15.875H90.3867H96.168L96.6367 15.3867L97.125 14.918V9.625V4.33203L96.6367 3.86328L96.168 3.375H90.3867H84.625V2.30078C84.625 0.972656 84.0586 0.25 83.0234 0.25C82.457 0.25 81.9297 0.699219 78.043 4.60547ZM88.2383 6.5H94V9.625V12.75H88.2383H82.457L81.9883 13.2188L81.5391 13.668L79.5273 11.6562L77.4961 9.625L79.5273 7.59375L81.5391 5.58203L81.9883 6.03125L82.457 6.5H88.2383Z" fill="url(#paint6_linear_12_34)"/>
<defs>
<linearGradient id="paint0_linear_12_34" x1="11.9688" y1="19" x2="11.9688" y2="0.25" gradientUnits="userSpaceOnUse">
<stop stop-color="#FF5C01"/>
<stop offset="0.401042" stop-color="#04026A"/>
</linearGradient>
<linearGradient id="paint1_linear_12_34" x1="48.6873" y1="97.0273" x2="48.6873" y2="0.25" gradientUnits="userSpaceOnUse">
<stop stop-color="#FF5C01"/>
<stop offset="0.401042" stop-color="#04026A"/>
</linearGradient>
<linearGradient id="paint2_linear_12_34" x1="48.687" y1="43.9127" x2="48.687" y2="9.64116" gradientUnits="userSpaceOnUse">
<stop stop-color="#FF5C01"/>
<stop offset="0.401042" stop-color="#04026A"/>
</linearGradient>
<linearGradient id="paint3_linear_12_34" x1="33.0625" y1="72.1316" x2="33.0625" y2="56.5109" gradientUnits="userSpaceOnUse">
<stop stop-color="#FF5C01"/>
<stop offset="0.401042" stop-color="#04026A"/>
</linearGradient>
<linearGradient id="paint4_linear_12_34" x1="47.1288" y1="72.125" x2="47.1288" y2="56.5" gradientUnits="userSpaceOnUse">
<stop stop-color="#FF5C01"/>
<stop offset="0.401042" stop-color="#04026A"/>
</linearGradient>
<linearGradient id="paint5_linear_12_34" x1="62.75" y1="72.125" x2="62.75" y2="56.5053" gradientUnits="userSpaceOnUse">
<stop stop-color="#FF5C01"/>
<stop offset="0.401042" stop-color="#04026A"/>
</linearGradient>
<linearGradient id="paint6_linear_12_34" x1="85.4062" y1="19" x2="85.4062" y2="0.25" gradientUnits="userSpaceOnUse">
<stop stop-color="#FF5C01"/>
<stop offset="0.401042" stop-color="#04026A"/>
</linearGradient>
</defs>
</svg>
