<svg width="95" height="95" viewBox="0 0 95 95" fill="none" xmlns="http://www.w3.org/2000/svg">
<path d="M3.6543 0.759033C2.69727 1.07153 1.05664 2.75122 0.763672 3.74731C0.412109 4.91919 0.412109 89.8411 0.763672 91.0129C1.07617 92.0872 2.69727 93.7083 3.77148 94.0208C4.94336 94.3723 89.8652 94.3723 91.0371 94.0208C92.1113 93.7083 93.7324 92.0872 94.0449 91.0129C94.3965 89.8411 94.3965 4.91919 94.0449 3.74731C93.7324 2.6731 92.1113 1.052 91.0371 0.739502C89.9238 0.407471 4.68945 0.427002 3.6543 0.759033ZM90.666 4.11841C91.1543 4.58716 91.1543 4.58716 91.1543 8.80591V13.0051H47.4043H3.6543V8.80591C3.6543 4.58716 3.6543 4.58716 4.14258 4.11841L4.61133 3.63013H47.4043H90.1973L90.666 4.11841ZM91.1543 53.1418V90.1731L90.666 90.6418L90.1973 91.1301H47.4043H4.61133L4.14258 90.6418L3.6543 90.1731V53.1418V16.1301H47.4043H91.1543V53.1418Z" fill="url(#paint0_linear_12_45)"/>
<path d="M7.26758 7.24341C6.95508 7.53638 6.7793 7.94653 6.7793 8.31763C6.7793 8.68872 6.95508 9.09888 7.26758 9.39185C7.67773 9.82153 7.91211 9.88013 9.12305 9.88013C10.334 9.88013 10.5684 9.82153 10.9785 9.39185C11.623 8.76685 11.623 7.86841 10.9785 7.24341C10.5684 6.81372 10.334 6.75513 9.12305 6.75513C7.91211 6.75513 7.67773 6.81372 7.26758 7.24341Z" fill="url(#paint1_linear_12_45)"/>
<path d="M15.0801 7.24341C14.7676 7.53638 14.5918 7.94653 14.5918 8.31763C14.5918 8.68872 14.7676 9.09888 15.0801 9.39185C15.4902 9.82153 15.7246 9.88013 16.9355 9.88013C18.1465 9.88013 18.3809 9.82153 18.791 9.39185C19.4355 8.76685 19.4355 7.86841 18.791 7.24341C18.3809 6.81372 18.1465 6.75513 16.9355 6.75513C15.7246 6.75513 15.4902 6.81372 15.0801 7.24341Z" fill="url(#paint2_linear_12_45)"/>
<path d="M22.8926 7.24341C22.5801 7.53638 22.4043 7.94653 22.4043 8.31763C22.4043 8.68872 22.5801 9.09888 22.8926 9.39185C23.3027 9.82153 23.5371 9.88013 24.748 9.88013C25.959 9.88013 26.1934 9.82153 26.6035 9.39185C26.916 9.09888 27.0918 8.68872 27.0918 8.31763C27.0918 7.94653 26.916 7.53638 26.6035 7.24341C26.1934 6.81372 25.959 6.75513 24.748 6.75513C23.5371 6.75513 23.3027 6.81372 22.8926 7.24341Z" fill="url(#paint3_linear_12_45)"/>
<path d="M40.0801 7.24341C39.7676 7.53638 39.5918 7.94653 39.5918 8.31763C39.5918 8.68872 39.7676 9.09888 40.0801 9.39185L40.5488 9.88013H59.9043H79.2598L79.7285 9.39185C80.041 9.09888 80.2168 8.68872 80.2168 8.31763C80.2168 7.94653 80.041 7.53638 79.7285 7.24341L79.2598 6.75513H59.9043H40.5488L40.0801 7.24341Z" fill="url(#paint4_linear_12_45)"/>
<path d="M83.8301 7.24341C83.5176 7.53638 83.3418 7.94653 83.3418 8.31763C83.3418 8.68872 83.5176 9.09888 83.8301 9.39185C84.2402 9.82153 84.4746 9.88013 85.6855 9.88013C86.8965 9.88013 87.1309 9.82153 87.541 9.39185C87.8535 9.09888 88.0293 8.68872 88.0293 8.31763C88.0293 7.94653 87.8535 7.53638 87.541 7.24341C87.1309 6.81372 86.8965 6.75513 85.6855 6.75513C84.4746 6.75513 84.2402 6.81372 83.8301 7.24341Z" fill="url(#paint5_linear_12_45)"/>
<path d="M10.3926 22.8684L9.9043 23.3372V39.5676V55.7981L10.3926 56.2668L10.8613 56.7551H34.123H57.3848L57.8535 56.2668L58.3418 55.7981V39.5676V23.3372L57.8535 22.8684L57.3848 22.3801H34.123H10.8613L10.3926 22.8684ZM55.2168 37.5168C55.2168 44.1184 55.1777 49.5286 55.1387 49.5286C55.0996 49.5286 52.1895 44.9192 48.6738 39.2942C41.7793 28.259 41.8184 28.3176 40.5879 28.8254C40.1191 29.0208 39.1035 30.4856 35.4512 36.3645C32.9512 40.3684 30.8418 43.6692 30.7832 43.6692C30.7246 43.6692 29.416 41.7942 27.8926 39.4895C24.8457 34.9192 24.4746 34.5676 23.3613 35.095C22.9512 35.2903 21.5254 37.2629 17.9121 42.6926L13.0293 50.0168V37.7512V25.5051H34.123H55.2168V37.5168ZM47.5605 43.3762C51.0176 48.9036 53.8496 53.4739 53.8496 53.5325C53.8496 53.5911 48.1465 53.6301 41.1543 53.6301C34.1816 53.6301 28.459 53.5911 28.459 53.5325C28.459 53.3372 41.0371 33.3176 41.1543 33.3176C41.2129 33.3176 44.1035 37.8489 47.5605 43.3762ZM26.4082 42.927C27.6973 44.8606 28.752 46.5989 28.752 46.7747C28.752 46.9504 27.834 48.552 26.7207 50.3684L24.6895 53.6301H19.5332H14.3965L19.123 46.5012C21.7402 42.595 23.9082 39.3918 23.9668 39.3918C24.0254 39.3723 25.1191 40.9739 26.4082 42.927Z" fill="url(#paint6_linear_12_45)"/>
<path d="M63.5176 22.8684C63.2051 23.1614 63.0293 23.5715 63.0293 23.9426C63.0293 24.3137 63.2051 24.7239 63.5176 25.0168C63.9277 25.4465 64.1621 25.5051 65.373 25.5051C66.584 25.5051 66.8184 25.4465 67.2285 25.0168C67.541 24.7239 67.7168 24.3137 67.7168 23.9426C67.7168 23.5715 67.541 23.1614 67.2285 22.8684C66.8184 22.4387 66.584 22.3801 65.373 22.3801C64.1621 22.3801 63.9277 22.4387 63.5176 22.8684Z" fill="url(#paint7_linear_12_45)"/>
<path d="M71.3301 22.8684C71.0176 23.1614 70.8418 23.5715 70.8418 23.9426C70.8418 24.3137 71.0176 24.7239 71.3301 25.0168L71.7988 25.5051H77.873H83.9473L84.416 25.0168C84.7285 24.7239 84.9043 24.3137 84.9043 23.9426C84.9043 23.5715 84.7285 23.1614 84.416 22.8684L83.9473 22.3801H77.873H71.7988L71.3301 22.8684Z" fill="url(#paint8_linear_12_45)"/>
<path d="M63.5176 29.1184C63.2051 29.4114 63.0293 29.8215 63.0293 30.1926C63.0293 30.5637 63.2051 30.9739 63.5176 31.2668L63.9863 31.7551H73.9668H83.9473L84.416 31.2668C84.7285 30.9739 84.9043 30.5637 84.9043 30.1926C84.9043 29.8215 84.7285 29.4114 84.416 29.1184L83.9473 28.6301H73.9668H63.9863L63.5176 29.1184Z" fill="url(#paint9_linear_12_45)"/>
<path d="M63.5176 35.3684C63.2051 35.6614 63.0293 36.0715 63.0293 36.4426C63.0293 36.8137 63.2051 37.2239 63.5176 37.5168L63.9863 38.0051H73.9668H83.9473L84.416 37.5168C84.7285 37.2239 84.9043 36.8137 84.9043 36.4426C84.9043 36.0715 84.7285 35.6614 84.416 35.3684L83.9473 34.8801H73.9668H63.9863L63.5176 35.3684Z" fill="url(#paint10_linear_12_45)"/>
<path d="M63.5176 41.6184C63.2051 41.9114 63.0293 42.3215 63.0293 42.6926C63.0293 43.0637 63.2051 43.4739 63.5176 43.7668L63.9863 44.2551H73.9668H83.9473L84.416 43.7668C84.7285 43.4739 84.9043 43.0637 84.9043 42.6926C84.9043 42.3215 84.7285 41.9114 84.416 41.6184L83.9473 41.1301H73.9668H63.9863L63.5176 41.6184Z" fill="url(#paint11_linear_12_45)"/>
<path d="M63.5176 47.8684C63.2051 48.1614 63.0293 48.5715 63.0293 48.9426C63.0293 49.3137 63.2051 49.7239 63.5176 50.0168L63.9863 50.5051H73.9668H83.9473L84.416 50.0168C84.7285 49.7239 84.9043 49.3137 84.9043 48.9426C84.9043 48.5715 84.7285 48.1614 84.416 47.8684L83.9473 47.3801H73.9668H63.9863L63.5176 47.8684Z" fill="url(#paint12_linear_12_45)"/>
<path d="M63.5176 54.1184C63.2051 54.4114 63.0293 54.8215 63.0293 55.1926C63.0293 55.5637 63.2051 55.9739 63.5176 56.2668L63.9863 56.7551H70.0605H76.1348L76.6035 56.2668C76.916 55.9739 77.0918 55.5637 77.0918 55.1926C77.0918 54.8215 76.916 54.4114 76.6035 54.1184L76.1348 53.6301H70.0605H63.9863L63.5176 54.1184Z" fill="url(#paint13_linear_12_45)"/>
<path d="M80.7051 54.1184C80.3926 54.4114 80.2168 54.8215 80.2168 55.1926C80.2168 55.5637 80.3926 55.9739 80.7051 56.2668C81.1152 56.6965 81.3496 56.7551 82.5605 56.7551C83.7715 56.7551 84.0059 56.6965 84.416 56.2668C84.7285 55.9739 84.9043 55.5637 84.9043 55.1926C84.9043 54.8215 84.7285 54.4114 84.416 54.1184C84.0059 53.6887 83.7715 53.6301 82.5605 53.6301C81.3496 53.6301 81.1152 53.6887 80.7051 54.1184Z" fill="url(#paint14_linear_12_45)"/>
<path d="M10.3926 63.4934L9.9043 63.9622V73.9426V83.9231L10.3926 84.3918L10.8613 84.8801H20.8418H30.8223L31.291 84.3918L31.7793 83.9231V73.9426V63.9622L31.291 63.4934L30.8223 63.0051H20.8418H10.8613L10.3926 63.4934ZM28.6543 73.9426V81.7551H20.8418H13.0293V73.9426V66.1301H20.8418H28.6543V73.9426Z" fill="url(#paint15_linear_12_45)"/>
<path d="M36.9551 63.4934L36.4668 63.9622V73.9426V83.9231L36.9551 84.3918L37.4238 84.8801H47.4043H57.3848L57.8535 84.3918L58.3418 83.9231V73.9426V63.9622L57.8535 63.4934L57.3848 63.0051H47.4043H37.4238L36.9551 63.4934ZM55.2168 73.9426V81.7551H47.4043H39.5918V73.9426V66.1301H47.4043H55.2168V73.9426Z" fill="url(#paint16_linear_12_45)"/>
<path d="M63.5176 63.4934L63.0293 63.9622V73.9426V83.9231L63.5176 84.3918L63.9863 84.8801H73.9668H83.9473L84.416 84.3918L84.9043 83.9231V73.9426V63.9622L84.416 63.4934L83.9473 63.0051H73.9668H63.9863L63.5176 63.4934ZM81.7793 73.9426V81.7551H73.9668H66.1543V73.9426V66.1301H73.9668H81.7793V73.9426Z" fill="url(#paint17_linear_12_45)"/>
<defs>
<linearGradient id="paint0_linear_12_45" x1="47.4043" y1="94.2844" x2="47.4043" y2="0.500023" gradientUnits="userSpaceOnUse">
<stop stop-color="#FF5C01"/>
<stop offset="0.375" stop-color="#04026A"/>
</linearGradient>
<linearGradient id="paint1_linear_12_45" x1="9.12061" y1="9.88013" x2="9.12061" y2="6.75513" gradientUnits="userSpaceOnUse">
<stop stop-color="#FF5C01"/>
<stop offset="0.375" stop-color="#04026A"/>
</linearGradient>
<linearGradient id="paint2_linear_12_45" x1="16.9331" y1="9.88013" x2="16.9331" y2="6.75513" gradientUnits="userSpaceOnUse">
<stop stop-color="#FF5C01"/>
<stop offset="0.375" stop-color="#04026A"/>
</linearGradient>
<linearGradient id="paint3_linear_12_45" x1="24.748" y1="9.88013" x2="24.748" y2="6.75513" gradientUnits="userSpaceOnUse">
<stop stop-color="#FF5C01"/>
<stop offset="0.375" stop-color="#04026A"/>
</linearGradient>
<linearGradient id="paint4_linear_12_45" x1="59.9043" y1="9.88013" x2="59.9043" y2="6.75513" gradientUnits="userSpaceOnUse">
<stop stop-color="#FF5C01"/>
<stop offset="0.375" stop-color="#04026A"/>
</linearGradient>
<linearGradient id="paint5_linear_12_45" x1="85.6855" y1="9.88013" x2="85.6855" y2="6.75513" gradientUnits="userSpaceOnUse">
<stop stop-color="#FF5C01"/>
<stop offset="0.375" stop-color="#04026A"/>
</linearGradient>
<linearGradient id="paint6_linear_12_45" x1="34.123" y1="56.7551" x2="34.123" y2="22.3801" gradientUnits="userSpaceOnUse">
<stop stop-color="#FF5C01"/>
<stop offset="0.375" stop-color="#04026A"/>
</linearGradient>
<linearGradient id="paint7_linear_12_45" x1="65.373" y1="25.5051" x2="65.373" y2="22.3801" gradientUnits="userSpaceOnUse">
<stop stop-color="#FF5C01"/>
<stop offset="0.375" stop-color="#04026A"/>
</linearGradient>
<linearGradient id="paint8_linear_12_45" x1="77.873" y1="25.5051" x2="77.873" y2="22.3801" gradientUnits="userSpaceOnUse">
<stop stop-color="#FF5C01"/>
<stop offset="0.375" stop-color="#04026A"/>
</linearGradient>
<linearGradient id="paint9_linear_12_45" x1="73.9668" y1="31.7551" x2="73.9668" y2="28.6301" gradientUnits="userSpaceOnUse">
<stop stop-color="#FF5C01"/>
<stop offset="0.375" stop-color="#04026A"/>
</linearGradient>
<linearGradient id="paint10_linear_12_45" x1="73.9668" y1="38.0051" x2="73.9668" y2="34.8801" gradientUnits="userSpaceOnUse">
<stop stop-color="#FF5C01"/>
<stop offset="0.375" stop-color="#04026A"/>
</linearGradient>
<linearGradient id="paint11_linear_12_45" x1="73.9668" y1="44.2551" x2="73.9668" y2="41.1301" gradientUnits="userSpaceOnUse">
<stop stop-color="#FF5C01"/>
<stop offset="0.375" stop-color="#04026A"/>
</linearGradient>
<linearGradient id="paint12_linear_12_45" x1="73.9668" y1="50.5051" x2="73.9668" y2="47.3801" gradientUnits="userSpaceOnUse">
<stop stop-color="#FF5C01"/>
<stop offset="0.375" stop-color="#04026A"/>
</linearGradient>
<linearGradient id="paint13_linear_12_45" x1="70.0605" y1="56.7551" x2="70.0605" y2="53.6301" gradientUnits="userSpaceOnUse">
<stop stop-color="#FF5C01"/>
<stop offset="0.375" stop-color="#04026A"/>
</linearGradient>
<linearGradient id="paint14_linear_12_45" x1="82.5605" y1="56.7551" x2="82.5605" y2="53.6301" gradientUnits="userSpaceOnUse">
<stop stop-color="#FF5C01"/>
<stop offset="0.375" stop-color="#04026A"/>
</linearGradient>
<linearGradient id="paint15_linear_12_45" x1="20.8418" y1="84.8801" x2="20.8418" y2="63.0051" gradientUnits="userSpaceOnUse">
<stop stop-color="#FF5C01"/>
<stop offset="0.375" stop-color="#04026A"/>
</linearGradient>
<linearGradient id="paint16_linear_12_45" x1="47.4043" y1="84.8801" x2="47.4043" y2="63.0051" gradientUnits="userSpaceOnUse">
<stop stop-color="#FF5C01"/>
<stop offset="0.375" stop-color="#04026A"/>
</linearGradient>
<linearGradient id="paint17_linear_12_45" x1="73.9668" y1="84.8801" x2="73.9668" y2="63.0051" gradientUnits="userSpaceOnUse">
<stop stop-color="#FF5C01"/>
<stop offset="0.375" stop-color="#04026A"/>
</linearGradient>
</defs>
</svg>
