<svg width="80" height="80" viewBox="0 0 80 80" fill="none" xmlns="http://www.w3.org/2000/svg">
<path d="M38.8281 0.296884C38.0625 0.656259 25.7188 12.9844 25.4844 13.625C25.1719 14.4688 25.6406 15.0625 27 15.5313C27.8281 15.8281 28.9219 16.5781 29.7344 17.4063C33.0625 20.8125 33.0313 26.3125 29.6719 29.6719C26.3125 33.0313 20.8125 33.0625 17.4063 29.7344C16.5781 28.9219 15.8281 27.8281 15.5313 27C15.0625 25.6406 14.4688 25.1719 13.625 25.4844C12.9844 25.7188 0.65627 38.0625 0.296895 38.8281C-0.0624796 39.5938 -0.0781046 40.2969 0.234395 41.0625C0.40627 41.4531 2.53127 43.7031 6.87502 48.0469C11.3438 52.5313 13.2969 54.5938 13.375 54.9063C13.5156 55.4688 13.2031 56.0781 12.6563 56.3438C12.4375 56.4531 11.8125 56.75 11.25 57.0156C9.92189 57.625 8.35939 59.1719 7.59377 60.6094C5.76564 64.0781 6.37502 68.0938 9.14064 70.8594C11.3438 73.0625 14.3125 73.9063 17.3281 73.2031C19.6719 72.6406 22.0469 70.7813 22.9844 68.7656C23.25 68.2031 23.5469 67.5625 23.6563 67.3438C23.9219 66.7969 24.5313 66.4844 25.0938 66.625C25.4063 66.7031 27.4688 68.6563 31.9531 73.125C36.2969 77.4688 38.5469 79.5938 38.9375 79.7656C39.7031 80.0781 40.4063 80.0625 41.1719 79.7031C41.9531 79.3438 54.2813 67 54.5313 66.3594C54.75 65.75 54.4531 65.1563 53.75 64.8125C53.4531 64.6719 52.8125 64.3594 52.3281 64.1406C51.2969 63.6563 49.8594 62.3125 49.1094 61.1406C47.3594 58.4063 47.3594 54.5469 49.125 51.8281C52.1094 47.1563 58.6406 46.4063 62.5938 50.2656C63.4531 51.1094 64.1094 52.0781 64.5469 53.1875C65.0313 54.375 65.5469 54.7969 66.2656 54.5469C67 54.3125 79.4219 41.8906 79.7656 41.0625C80.0625 40.3281 80.0625 39.6719 79.7656 38.9375C79.5938 38.5469 77.4688 36.2969 73.125 31.9531C68.6563 27.4688 66.7031 25.4063 66.625 25.0938C66.4844 24.5313 66.7969 23.9219 67.3438 23.6563C67.5625 23.5469 68.2031 23.25 68.7656 22.9844C70.7813 22.0469 72.6406 19.6719 73.2031 17.3281C73.9063 14.3125 73.0625 11.3594 70.8594 9.12501C67.4531 5.67188 62 5.70313 58.5156 9.17188C57.5781 10.1094 57.0781 10.9219 56.4375 12.5313C56.3438 12.7656 56.0938 13.0625 55.875 13.2031C55 13.7813 54.8906 13.6875 48.0469 6.85938C43.7031 2.54688 41.4531 0.406259 41.0625 0.234385C40.2969 -0.0781155 39.5938 -0.0624905 38.8281 0.296884Z" fill="url(#paint0_linear_2_34)"/>
<defs>
<linearGradient id="paint0_linear_2_34" x1="49" y1="80" x2="19.5" y2="12" gradientUnits="userSpaceOnUse">
<stop stop-color="#FF5C01"/>
<stop offset="1" stop-color="#04026A"/>
</linearGradient>
</defs>
</svg>
