<svg width="25" height="19" viewBox="0 0 25 19" fill="none" xmlns="http://www.w3.org/2000/svg">
<path d="M1.57715 0.0761574C1.25488 0.144517 0.874023 0.344712 0.620117 0.588853C0.493164 0.710923 0.390625 0.82811 0.390625 0.852525C0.390625 0.911118 12.5049 10.9892 12.5586 10.9746C12.583 10.9697 15.3174 8.6992 18.6279 5.93065L24.6582 0.89647L24.5312 0.735337C24.3848 0.540025 23.9795 0.256821 23.6816 0.139634C23.4717 0.0566262 22.8857 0.0517434 12.6221 0.0468605C6.66016 0.0419777 1.68945 0.0566262 1.57715 0.0761574Z" fill="url(#paint0_linear_118_11)"/>
<path d="M0 9.85645C0 14.5537 0.0195312 17.1953 0.0488281 17.3662C0.200195 18.1621 0.854492 18.792 1.66016 18.9189C2.10449 18.9922 22.8955 18.9922 23.3398 18.9189C24.1504 18.792 24.8047 18.1572 24.9512 17.3613C24.9854 17.1855 24.9951 14.5977 24.9902 9.88086L24.9756 2.66406L18.7793 7.83984C15.3711 10.6865 12.5635 13.0156 12.5391 13.0156C12.5146 13.0156 9.72656 10.7012 6.33789 7.87402C2.94922 5.05176 0.136719 2.70801 0.0878906 2.67383C0.00488281 2.61035 0 2.9082 0 9.85645Z" fill="url(#paint1_linear_118_11)"/>
<defs>
<linearGradient id="paint0_linear_118_11" x1="16.8982" y1="14.454" x2="14.4093" y2="-3.1867" gradientUnits="userSpaceOnUse">
<stop stop-color="#FF5C01"/>
<stop offset="0.833333" stop-color="#04026A"/>
</linearGradient>
<linearGradient id="paint1_linear_118_11" x1="17" y1="24.1665" x2="11.7302" y2="-1.60684" gradientUnits="userSpaceOnUse">
<stop stop-color="#FF5C01"/>
<stop offset="0.833333" stop-color="#04026A"/>
</linearGradient>
</defs>
</svg>
