<svg width="70" height="70" viewBox="0 0 70 70" fill="none" xmlns="http://www.w3.org/2000/svg">
<path d="M33.5068 0.159439C32.411 0.446709 31.4932 1.00756 30.7534 1.81464C28.6438 4.12646 28.6438 7.4779 30.7671 9.72132C31.5479 10.5421 32.3014 11.0345 33.1918 11.2944L33.7671 11.4723V15.0836V18.6813H23.274C11.7123 18.6813 12.0548 18.6539 10.2192 19.5431C8.9589 20.1587 7.38356 21.7181 6.73973 23.004C5.93151 24.6045 5.82192 25.2611 5.82192 28.5168V31.4031H5.23288C2.91781 31.4031 1.23288 32.388 0.356164 34.2621L0 35.0281V39.6791V44.3301L0.383562 45.1098C0.931507 46.2315 2.0274 47.1891 3.17808 47.5448C3.67123 47.6952 4.45205 47.8183 4.94521 47.8183H5.82192V50.7047C5.82192 53.9057 5.93151 54.617 6.68493 56.1628C7.21918 57.2434 8.64384 58.7892 9.69863 59.4185C10.6164 59.9793 12.0548 60.4718 13.1096 60.5949L13.8904 60.6906L13.9315 65.0133L13.9726 69.3223L14.3699 69.6643C14.6575 69.9105 14.8904 69.9926 15.1918 69.9516C15.4658 69.9105 18.0548 68.269 22.4658 65.3279L29.3151 60.7453L43.4247 60.677L57.5342 60.6086L58.4247 60.3076C61.1507 59.3774 63.274 57.1203 63.9589 54.4392C64.1233 53.7962 64.1781 52.8934 64.1781 50.7047V47.8183H65.0548C65.5479 47.8183 66.3288 47.6952 66.8219 47.5448C67.9726 47.1891 69.0685 46.2315 69.6164 45.1098L70 44.3301V39.6791V35.0281L69.6438 34.2621C68.7671 32.388 67.0822 31.4031 64.7671 31.4031H64.1781V28.5168C64.1781 25.2474 64.0685 24.5634 63.2466 22.9903C62.589 21.7181 61.0137 20.1313 59.7945 19.5431C57.9863 18.6539 58.3288 18.6813 46.7534 18.6813H36.2329V15.0836V11.4723L36.8219 11.3081C37.7123 11.0482 38.4247 10.5694 39.2192 9.735C41.3562 7.4779 41.3699 4.12646 39.2466 1.81464C37.8219 0.255196 35.5753 -0.401413 33.5068 0.159439ZM36.1233 2.48493C37.5342 2.96371 38.4521 4.24957 38.4658 5.7543C38.4658 6.84865 38.1233 7.6147 37.3288 8.32602C35.9452 9.57084 34.0548 9.57084 32.6712 8.32602C31.8767 7.6147 31.5342 6.84865 31.5342 5.7543C31.5479 3.36041 33.863 1.70521 36.1233 2.48493ZM58.5753 21.5813C59.8493 22.2106 60.7397 23.1134 61.3425 24.3993L61.7808 25.3158V39.6107V53.9057L61.3425 54.8359C60.8219 55.9302 59.7808 57.0656 58.8356 57.5854C57.4247 58.3515 57.4931 58.3515 42.6712 58.3515C29.7945 58.3515 29.0137 58.3651 28.4932 58.6114C28.1918 58.7482 25.411 60.5538 22.3014 62.6331C19.2055 64.7124 16.5753 66.4633 16.4521 66.5044C16.2603 66.5864 16.2329 66.2581 16.2329 63.2487C16.2329 59.993 16.2192 59.8836 15.9178 59.4321C15.4932 58.7892 14.7808 58.3515 14.1918 58.3515C13.3425 58.3515 11.8493 57.9684 11.1781 57.5854C9.87671 56.8331 8.90411 55.6566 8.42466 54.2613C8.15069 53.4269 8.15069 53.3038 8.17808 39.3645L8.21918 25.3158L8.65753 24.3993C9.38356 22.8535 10.5479 21.8276 12.1918 21.253C12.8356 21.0342 14.3014 21.0205 35.2192 21.0478L57.5479 21.0752L58.5753 21.5813ZM5.79452 39.6381L5.82192 45.4929H5.0411C4.0274 45.4929 3.23288 45.1372 2.72603 44.4532L2.32877 43.9471L2.28767 39.8296C2.24658 35.7805 2.26027 35.6984 2.56164 35.1102C3.06849 34.1253 3.83562 33.7286 5.13699 33.7696L5.75342 33.797L5.79452 39.6381ZM66.4931 34.0569C67 34.3305 67.4247 34.864 67.6164 35.4932C67.7123 35.8079 67.7397 37.4084 67.7123 39.9664L67.6712 43.9471L67.274 44.4532C66.7671 45.1372 65.9726 45.4929 64.9726 45.4929H64.1781V39.7065C64.1781 36.5192 64.2192 33.8654 64.2877 33.8107C64.4384 33.6465 66.0411 33.8244 66.4931 34.0569Z" fill="url(#paint0_linear_12_205)"/>
<path d="M19.1919 30.5687C17.5206 31.1159 16.0138 32.5796 15.4521 34.18C15.1234 35.1376 15.1234 37.0938 15.4521 38.065C16.233 40.2947 18.5617 41.9362 20.9453 41.9362C22.5891 41.9362 23.9316 41.3754 25.096 40.2126C28.0275 37.2853 26.959 32.1965 23.0823 30.6918C22.0001 30.2814 20.2604 30.2267 19.1919 30.5687ZM22.1371 32.8395C23.4384 33.3046 24.2878 34.3852 24.411 35.7395C24.548 37.2169 23.9316 38.4343 22.7124 39.1593C22.1508 39.4876 21.9042 39.5424 21.0275 39.5424C19.5206 39.5424 18.4384 38.8858 17.7946 37.6136C17.4247 36.8612 17.4384 35.3565 17.8357 34.6178C18.685 33.0036 20.4932 32.2649 22.1371 32.8395Z" fill="url(#paint1_linear_12_205)"/>
<path d="M47.3013 30.5687C45.6712 31.0885 44.5205 32.1008 43.726 33.7286C43.315 34.5631 43.2876 34.6999 43.2876 36.1225C43.2876 37.4768 43.3287 37.7093 43.6712 38.4343C44.4246 40.0622 45.6712 41.1565 47.315 41.6627C50.8629 42.7707 54.5068 40.3221 54.8218 36.6013C55.0547 33.8107 53.2328 31.2253 50.5479 30.5277C49.4794 30.2404 48.2739 30.2677 47.3013 30.5687ZM50.5205 32.9763C51.767 33.5645 52.452 34.6999 52.4657 36.1225C52.4657 36.9296 52.3972 37.1895 52.0547 37.8051C51.1232 39.5013 48.9177 40.1169 47.2602 39.132C44.7397 37.6683 45.0821 33.8791 47.8218 32.8395C48.5068 32.5796 49.8492 32.648 50.5205 32.9763Z" fill="url(#paint2_linear_12_205)"/>
<path d="M28.7534 44.3985C28.3424 44.5627 28.0137 45.0688 28.0137 45.5339C28.0137 46.0948 29.1781 47.2575 30.3424 47.8731C31.7534 48.6118 33.0959 48.9127 35 48.9127C37.726 48.9127 39.8904 48.133 41.2876 46.6556C42.0959 45.8075 42.1918 45.3287 41.6575 44.7268C41.137 44.1113 40.4931 44.1933 39.6849 44.9731C38.5205 46.1085 37.1233 46.5872 35 46.5872C32.9041 46.5872 31.4794 46.1085 30.3424 45.0141C29.6849 44.3712 29.2192 44.1933 28.7534 44.3985Z" fill="url(#paint3_linear_12_205)"/>
<defs>
<linearGradient id="paint0_linear_12_205" x1="35" y1="69.9616" x2="35" y2="-0.0383606" gradientUnits="userSpaceOnUse">
<stop stop-color="#FF5C01"/>
<stop offset="0.390625" stop-color="#04026A"/>
</linearGradient>
<linearGradient id="paint1_linear_12_205" x1="20.9885" y1="41.9362" x2="20.9885" y2="30.3442" gradientUnits="userSpaceOnUse">
<stop stop-color="#FF5C01"/>
<stop offset="0.390625" stop-color="#04026A"/>
</linearGradient>
<linearGradient id="paint2_linear_12_205" x1="49.0647" y1="41.9309" x2="49.0647" y2="30.3268" gradientUnits="userSpaceOnUse">
<stop stop-color="#FF5C01"/>
<stop offset="0.390625" stop-color="#04026A"/>
</linearGradient>
<linearGradient id="paint3_linear_12_205" x1="35.0024" y1="48.9127" x2="35.0024" y2="44.3176" gradientUnits="userSpaceOnUse">
<stop stop-color="#FF5C01"/>
<stop offset="0.390625" stop-color="#04026A"/>
</linearGradient>
</defs>
</svg>
